<svg width="100" height="100" viewBox="0 0 100 100" fill="none" xmlns="http://www.w3.org/2000/svg" role="img" aria-label="Bezier">
    <path d="M22.13 64.48 C30.49 62.39 39 67.3 41.38 75.59" fill="none" stroke="#1c1c24" stroke-width="1" stroke-linecap="round" opacity="0.7"/>
    <path d="M21.62 62.42 C31.09 60.06 40.72 65.63 43.41 75.01" fill="none" stroke="#1c1c24" stroke-width="1.07" stroke-linecap="round" opacity="0.71"/>
    <path d="M20.79 59.1 C32.05 56.29 43.51 62.91 46.7 74.06" fill="none" stroke="#1c1c24" stroke-width="1.19" stroke-linecap="round" opacity="0.73"/>
    <path d="M19.45 53.73 C33.6 50.2 48.01 58.52 52.03 72.54" fill="none" stroke="#1c1c24" stroke-width="1.38" stroke-linecap="round" opacity="0.76"/>
    <path d="M17.28 45.03 C36.12 40.34 55.29 51.4 60.64 70.07" fill="none" stroke="#1c1c24" stroke-width="1.69" stroke-linecap="round" opacity="0.8"/>
    <path d="M13.77 30.96 C40.19 24.38 67.08 39.9 74.58 66.07" fill="none" stroke="#1c1c24" stroke-width="2.19" stroke-linecap="round" opacity="0.88"/>
    <path d="M8.1 8.2 C46.78 -1.45 86.15 21.28 97.13 59.6" fill="none" stroke="#1c1c24" stroke-width="3" stroke-linecap="round" opacity="1"/>
    <circle cx="26" cy="80" r="3.2" fill="#4750d4"/>
</svg>
