<svg width="100" height="100" viewBox="0 0 100 100" fill="none" xmlns="http://www.w3.org/2000/svg" role="img" aria-label="Bezier">
    <path d="M20.01 65.17 C30.08 61.09 41.2 68.04 41.96 78.88" fill="none" stroke="#1c1c24" stroke-width="1" stroke-linecap="round" opacity="0.7"/>
    <path d="M17.88 59.91 C31.73 54.32 46.95 64.09 47.64 79" fill="none" stroke="#1c1c24" stroke-width="1.2" stroke-linecap="round" opacity="0.73"/>
    <path d="M15.31 53.55 C33.87 46.05 54.18 59.5 54.53 79.51" fill="none" stroke="#1c1c24" stroke-width="1.43" stroke-linecap="round" opacity="0.76"/>
    <path d="M12.19 45.83 C36.68 35.94 63.32 54.26 62.85 80.66" fill="none" stroke="#1c1c24" stroke-width="1.72" stroke-linecap="round" opacity="0.81"/>
    <path d="M8.42 36.48 C40.41 23.55 74.94 48.4 72.86 82.84" fill="none" stroke="#1c1c24" stroke-width="2.07" stroke-linecap="round" opacity="0.86"/>
    <path d="M3.83 25.14 C45.4 8.34 89.81 42.07 84.8 86.62" fill="none" stroke="#1c1c24" stroke-width="2.49" stroke-linecap="round" opacity="0.92"/>
    <path d="M-1.72 11.39 C52.17 -10.38 108.97 35.61 98.88 92.85" fill="none" stroke="#1c1c24" stroke-width="3" stroke-linecap="round" opacity="1"/>
    <circle cx="26" cy="80" r="3.2" fill="#4750d4"/>
</svg>
