<svg width="100" height="100" viewBox="0 0 100 100" fill="none" xmlns="http://www.w3.org/2000/svg" role="img" aria-label="Bezier">
    <path d="M22.13 64.48 C30.49 62.39 39 67.3 41.38 75.59" fill="none" stroke="#1c1c24" stroke-width="0.9" stroke-linecap="round" opacity="0.7"/>
    <path d="M20.83 60.35 C31.73 57.48 42.89 64.03 45.69 74.96" fill="none" stroke="#1c1c24" stroke-width="1.06" stroke-linecap="round" opacity="0.72"/>
    <path d="M19.1 55.38 C33.25 51.42 47.82 60.17 50.97 74.52" fill="none" stroke="#1c1c24" stroke-width="1.25" stroke-linecap="round" opacity="0.75"/>
    <path d="M16.8 49.43 C35.12 43.93 54.13 55.64 57.44 74.48" fill="none" stroke="#1c1c24" stroke-width="1.48" stroke-linecap="round" opacity="0.78"/>
    <path d="M13.71 42.33 C37.4 34.6 62.27 50.41 65.32 75.14" fill="none" stroke="#1c1c24" stroke-width="1.76" stroke-linecap="round" opacity="0.82"/>
    <path d="M9.51 33.9 C40.22 22.92 72.88 44.46 74.87 77.01" fill="none" stroke="#1c1c24" stroke-width="2.09" stroke-linecap="round" opacity="0.87"/>
    <path d="M3.78 23.97 C43.68 8.14 86.87 37.91 86.27 80.84" fill="none" stroke="#1c1c24" stroke-width="2.5" stroke-linecap="round" opacity="0.93"/>
    <path d="M-4.1 12.4 C47.94 -10.77 105.55 31.08 99.59 87.74" fill="none" stroke="#1c1c24" stroke-width="3" stroke-linecap="round" opacity="1"/>
    <circle cx="26" cy="80" r="3.2" fill="#4750d4"/>
</svg>
