<svg width="100" height="100" viewBox="0 0 100 100" fill="none" xmlns="http://www.w3.org/2000/svg" role="img" aria-label="Bezier">
    <path d="M33 78 C41.89 53.57 3.9 50.46 4.94 20.48" fill="none" stroke="#1c1c24" stroke-width="1.8" stroke-linecap="round" opacity="0.78"/>
    <path d="M33 78 C41.89 53.57 13.96 38.46 24.72 10.45" fill="none" stroke="#1c1c24" stroke-width="2.3" stroke-linecap="round" opacity="0.84"/>
    <path d="M33 78 C41.89 53.57 28.1 28.46 46.89 5.08" fill="none" stroke="#1c1c24" stroke-width="2.76" stroke-linecap="round" opacity="0.89"/>
    <path d="M33 78 C41.89 53.57 44.92 24.02 69.56 6.9" fill="none" stroke="#1c1c24" stroke-width="2.81" stroke-linecap="round" opacity="0.9"/>
    <path d="M33 78 C41.89 53.57 55.01 32.68 83.22 22.49" fill="none" stroke="#1c1c24" stroke-width="2.42" stroke-linecap="round" opacity="0.85"/>
    <path d="M33 78 C41.89 53.57 60.98 41.48 90.78 37.97" fill="none" stroke="#1c1c24" stroke-width="2.08" stroke-linecap="round" opacity="0.81"/>
    <path d="M33 78 C41.89 53.57 63.88 48.83 93.81 50.93" fill="none" stroke="#1c1c24" stroke-width="1.8" stroke-linecap="round" opacity="0.78"/>
    <line x1="33" y1="78" x2="35.74" y2="70.48" stroke="#4750d4" stroke-width="1.3" stroke-linecap="round"/>
    <circle cx="33" cy="78" r="3.2" fill="#4750d4"/>
</svg>
