<svg width="100" height="100" viewBox="0 0 100 100" fill="none" xmlns="http://www.w3.org/2000/svg" role="img" aria-label="Bezier">
    <path d="M33 78 C43.26 49.81 3.9 50.46 4.94 20.48" fill="none" stroke="#1c1c24" stroke-width="0.55" stroke-linecap="round" opacity="0.78"/>
    <path d="M33 78 C43.26 49.81 6.84 47.65 10.91 17.93" fill="none" stroke="#1c1c24" stroke-width="0.63" stroke-linecap="round" opacity="0.79"/>
    <path d="M33 78 C43.26 49.81 9.57 43.64 16.58 14.46" fill="none" stroke="#1c1c24" stroke-width="0.7" stroke-linecap="round" opacity="0.81"/>
    <path d="M33 78 C43.26 49.81 12.68 39.37 22.49 11.01" fill="none" stroke="#1c1c24" stroke-width="0.77" stroke-linecap="round" opacity="0.83"/>
    <path d="M33 78 C43.26 49.81 16.32 35.48 28.78 8.19" fill="none" stroke="#1c1c24" stroke-width="0.84" stroke-linecap="round" opacity="0.85"/>
    <path d="M33 78 C43.26 49.81 20.41 32.03 35.35 6.01" fill="none" stroke="#1c1c24" stroke-width="0.91" stroke-linecap="round" opacity="0.86"/>
    <path d="M33 78 C43.26 49.81 24.88 29.06 42.12 4.5" fill="none" stroke="#1c1c24" stroke-width="0.98" stroke-linecap="round" opacity="0.88"/>
    <path d="M33 78 C43.26 49.81 29.66 26.59 49 3.66" fill="none" stroke="#1c1c24" stroke-width="1.05" stroke-linecap="round" opacity="0.9"/>
    <path d="M33 78 C43.26 49.81 34.66 24.64 55.91 3.46" fill="none" stroke="#1c1c24" stroke-width="1.11" stroke-linecap="round" opacity="0.91"/>
    <path d="M33 78 C43.26 49.81 39.82 23.23 62.76 3.9" fill="none" stroke="#1c1c24" stroke-width="1.13" stroke-linecap="round" opacity="0.91"/>
    <path d="M33 78 C43.26 49.81 45.06 22.33 69.5 4.93" fill="none" stroke="#1c1c24" stroke-width="1.06" stroke-linecap="round" opacity="0.9"/>
    <path d="M33 78 C43.26 49.81 48.82 24.42 74.55 8.99" fill="none" stroke="#1c1c24" stroke-width="1.01" stroke-linecap="round" opacity="0.89"/>
    <path d="M33 78 C43.26 49.81 51.86 27.16 78.69 13.74" fill="none" stroke="#1c1c24" stroke-width="0.95" stroke-linecap="round" opacity="0.87"/>
    <path d="M33 78 C43.26 49.81 54.49 29.95 82.23 18.52" fill="none" stroke="#1c1c24" stroke-width="0.89" stroke-linecap="round" opacity="0.86"/>
    <path d="M33 78 C43.26 49.81 56.72 32.72 85.2 23.28" fill="none" stroke="#1c1c24" stroke-width="0.84" stroke-linecap="round" opacity="0.85"/>
    <path d="M33 78 C43.26 49.81 58.6 35.44 87.65 27.93" fill="none" stroke="#1c1c24" stroke-width="0.79" stroke-linecap="round" opacity="0.83"/>
    <path d="M33 78 C43.26 49.81 60.16 38.07 89.63 32.44" fill="none" stroke="#1c1c24" stroke-width="0.74" stroke-linecap="round" opacity="0.82"/>
    <path d="M33 78 C43.26 49.81 61.42 40.58 91.17 36.74" fill="none" stroke="#1c1c24" stroke-width="0.7" stroke-linecap="round" opacity="0.81"/>
    <path d="M33 78 C43.26 49.81 62.42 42.93 92.35 40.79" fill="none" stroke="#1c1c24" stroke-width="0.66" stroke-linecap="round" opacity="0.8"/>
    <path d="M33 78 C43.26 49.81 63.19 45.1 93.19 44.54" fill="none" stroke="#1c1c24" stroke-width="0.62" stroke-linecap="round" opacity="0.79"/>
    <path d="M33 78 C43.26 49.81 63.77 47.05 93.76 47.92" fill="none" stroke="#1c1c24" stroke-width="0.58" stroke-linecap="round" opacity="0.78"/>
    <path d="M33 78 C43.26 49.81 64.17 48.7 94.1 50.8" fill="none" stroke="#1c1c24" stroke-width="0.55" stroke-linecap="round" opacity="0.78"/>
    <line x1="33" y1="78" x2="35.74" y2="70.48" stroke="#4750d4" stroke-width="1.3" stroke-linecap="round"/>
    <circle cx="33" cy="78" r="2.4" fill="#4750d4"/>
</svg>
