<svg width="100" height="100" viewBox="0 0 100 100" fill="none" xmlns="http://www.w3.org/2000/svg" role="img" aria-label="Bezier">
    <path d="M33 78 C43.26 49.81 6.93 48.59 9.03 18.66" fill="none" stroke="#1c1c24" stroke-width="0.7" stroke-linecap="round" opacity="0.78"/>
    <path d="M33 78 C43.26 49.81 10.45 45.81 15.94 16.32" fill="none" stroke="#1c1c24" stroke-width="0.79" stroke-linecap="round" opacity="0.8"/>
    <path d="M33 78 C43.26 49.81 13.75 40.88 22.48 12.18" fill="none" stroke="#1c1c24" stroke-width="0.88" stroke-linecap="round" opacity="0.82"/>
    <path d="M33 78 C43.26 49.81 17.74 36.36 29.52 8.77" fill="none" stroke="#1c1c24" stroke-width="0.97" stroke-linecap="round" opacity="0.84"/>
    <path d="M33 78 C43.26 49.81 22.35 32.4 36.97 6.21" fill="none" stroke="#1c1c24" stroke-width="1.06" stroke-linecap="round" opacity="0.86"/>
    <path d="M33 78 C43.26 49.81 27.45 29.07 44.67 4.51" fill="none" stroke="#1c1c24" stroke-width="1.14" stroke-linecap="round" opacity="0.88"/>
    <path d="M33 78 C43.26 49.81 32.94 26.41 52.5 3.67" fill="none" stroke="#1c1c24" stroke-width="1.22" stroke-linecap="round" opacity="0.9"/>
    <path d="M33 78 C43.26 49.81 38.68 24.43 60.33 3.66" fill="none" stroke="#1c1c24" stroke-width="1.3" stroke-linecap="round" opacity="0.92"/>
    <path d="M33 78 C43.26 49.81 44.57 23.14 68.05 4.46" fill="none" stroke="#1c1c24" stroke-width="1.22" stroke-linecap="round" opacity="0.9"/>
    <path d="M33 78 C43.26 49.81 48.83 25.34 73.86 8.81" fill="none" stroke="#1c1c24" stroke-width="1.15" stroke-linecap="round" opacity="0.88"/>
    <path d="M33 78 C43.26 49.81 52.03 28.58 78.38 14.24" fill="none" stroke="#1c1c24" stroke-width="1.08" stroke-linecap="round" opacity="0.87"/>
    <path d="M33 78 C43.26 49.81 54.69 31.81 82.12 19.65" fill="none" stroke="#1c1c24" stroke-width="1.01" stroke-linecap="round" opacity="0.85"/>
    <path d="M33 78 C43.26 49.81 56.86 34.97 85.14 24.95" fill="none" stroke="#1c1c24" stroke-width="0.95" stroke-linecap="round" opacity="0.84"/>
    <path d="M33 78 C43.26 49.81 58.58 37.98 87.51 30.05" fill="none" stroke="#1c1c24" stroke-width="0.89" stroke-linecap="round" opacity="0.82"/>
    <path d="M33 78 C43.26 49.81 59.9 40.82 89.31 34.86" fill="none" stroke="#1c1c24" stroke-width="0.84" stroke-linecap="round" opacity="0.81"/>
    <path d="M33 78 C43.26 49.81 60.9 43.41 90.61 39.29" fill="none" stroke="#1c1c24" stroke-width="0.78" stroke-linecap="round" opacity="0.8"/>
    <path d="M33 78 C43.26 49.81 61.6 45.73 91.5 43.27" fill="none" stroke="#1c1c24" stroke-width="0.74" stroke-linecap="round" opacity="0.79"/>
    <path d="M33 78 C43.26 49.81 62.07 47.65 92.05 46.6" fill="none" stroke="#1c1c24" stroke-width="0.7" stroke-linecap="round" opacity="0.78"/>
    <line x1="33" y1="78" x2="35.74" y2="70.48" stroke="#4750d4" stroke-width="1.3" stroke-linecap="round"/>
    <circle cx="33" cy="78" r="2.4" fill="#4750d4"/>
</svg>
