<svg width="100" height="100" viewBox="0 0 100 100" fill="none" xmlns="http://www.w3.org/2000/svg" role="img" aria-label="Bezier">
    <path d="M33 78 C43.26 49.81 1 52.57 1 22.57" fill="none" stroke="#1c1c24" stroke-width="0.7" stroke-linecap="round" opacity="0.78"/>
    <path d="M33 78 C43.26 49.81 4.74 48.47 8.8 18.75" fill="none" stroke="#1c1c24" stroke-width="0.79" stroke-linecap="round" opacity="0.8"/>
    <path d="M33 78 C43.26 49.81 8.89 45 16.84 16.07" fill="none" stroke="#1c1c24" stroke-width="0.88" stroke-linecap="round" opacity="0.82"/>
    <path d="M33 78 C43.26 49.81 12.96 39.22 24.57 11.55" fill="none" stroke="#1c1c24" stroke-width="0.97" stroke-linecap="round" opacity="0.84"/>
    <path d="M33 78 C43.26 49.81 17.97 33.85 32.95 7.86" fill="none" stroke="#1c1c24" stroke-width="1.06" stroke-linecap="round" opacity="0.86"/>
    <path d="M33 78 C43.26 49.81 23.81 29.31 41.83 5.33" fill="none" stroke="#1c1c24" stroke-width="1.14" stroke-linecap="round" opacity="0.88"/>
    <path d="M33 78 C43.26 49.81 30.31 25.67 51.03 3.98" fill="none" stroke="#1c1c24" stroke-width="1.22" stroke-linecap="round" opacity="0.9"/>
    <path d="M33 78 C43.26 49.81 37.27 23.01 60.33 3.82" fill="none" stroke="#1c1c24" stroke-width="1.3" stroke-linecap="round" opacity="0.92"/>
    <path d="M33 78 C43.26 49.81 44.52 21.33 69.54 4.78" fill="none" stroke="#1c1c24" stroke-width="1.22" stroke-linecap="round" opacity="0.9"/>
    <path d="M33 78 C43.26 49.81 51.87 20.62 78.5 6.8" fill="none" stroke="#1c1c24" stroke-width="1.15" stroke-linecap="round" opacity="0.88"/>
    <path d="M33 78 C43.26 49.81 57.86 22.46 85.75 11.41" fill="none" stroke="#1c1c24" stroke-width="1.08" stroke-linecap="round" opacity="0.87"/>
    <path d="M33 78 C43.26 49.81 61.41 26.87 90.24 18.56" fill="none" stroke="#1c1c24" stroke-width="1.01" stroke-linecap="round" opacity="0.85"/>
    <path d="M33 78 C43.26 49.81 64.22 31.2 93.69 25.56" fill="none" stroke="#1c1c24" stroke-width="0.95" stroke-linecap="round" opacity="0.84"/>
    <path d="M33 78 C43.26 49.81 66.38 35.34 96.22 32.27" fill="none" stroke="#1c1c24" stroke-width="0.89" stroke-linecap="round" opacity="0.82"/>
    <path d="M33 78 C43.26 49.81 67.97 39.22 97.96 38.56" fill="none" stroke="#1c1c24" stroke-width="0.84" stroke-linecap="round" opacity="0.81"/>
    <path d="M33 78 C43.26 49.81 69.08 42.77 99.04 44.33" fill="none" stroke="#1c1c24" stroke-width="0.78" stroke-linecap="round" opacity="0.8"/>
    <path d="M33 78 C43.26 49.81 69.8 45.9 99.59 49.45" fill="none" stroke="#1c1c24" stroke-width="0.74" stroke-linecap="round" opacity="0.79"/>
    <path d="M33 78 C43.26 49.81 70.21 48.49 99.76 53.7" fill="none" stroke="#1c1c24" stroke-width="0.7" stroke-linecap="round" opacity="0.78"/>
    <line x1="33" y1="78" x2="35.74" y2="70.48" stroke="#4750d4" stroke-width="1.3" stroke-linecap="round"/>
    <circle cx="33" cy="78" r="2.4" fill="#4750d4"/>
</svg>
