<svg width="100" height="100" viewBox="0 0 100 100" fill="none" xmlns="http://www.w3.org/2000/svg" role="img" aria-label="Bezier">
    <path d="M33 78 C43.26 49.81 0.77 50.19 4.94 20.48" fill="none" stroke="#1c1c24" stroke-width="0.7" stroke-linecap="round" opacity="0.78"/>
    <path d="M33 78 C43.26 49.81 4.49 46.38 12.34 17.43" fill="none" stroke="#1c1c24" stroke-width="0.79" stroke-linecap="round" opacity="0.8"/>
    <path d="M33 78 C43.26 49.81 8 40.55 19.31 12.77" fill="none" stroke="#1c1c24" stroke-width="0.88" stroke-linecap="round" opacity="0.82"/>
    <path d="M33 78 C43.26 49.81 12.37 35.2 26.9 8.95" fill="none" stroke="#1c1c24" stroke-width="0.97" stroke-linecap="round" opacity="0.84"/>
    <path d="M33 78 C43.26 49.81 17.51 30.53 34.96 6.12" fill="none" stroke="#1c1c24" stroke-width="1.06" stroke-linecap="round" opacity="0.86"/>
    <path d="M33 78 C43.26 49.81 23.26 26.61 43.33 4.3" fill="none" stroke="#1c1c24" stroke-width="1.14" stroke-linecap="round" opacity="0.88"/>
    <path d="M33 78 C43.26 49.81 29.48 23.5 51.84 3.5" fill="none" stroke="#1c1c24" stroke-width="1.22" stroke-linecap="round" opacity="0.9"/>
    <path d="M33 78 C43.26 49.81 36.02 21.22 60.35 3.67" fill="none" stroke="#1c1c24" stroke-width="1.3" stroke-linecap="round" opacity="0.92"/>
    <path d="M33 78 C43.26 49.81 42.73 19.78 68.71 4.78" fill="none" stroke="#1c1c24" stroke-width="1.22" stroke-linecap="round" opacity="0.9"/>
    <path d="M33 78 C43.26 49.81 47.76 21.95 75.07 9.54" fill="none" stroke="#1c1c24" stroke-width="1.15" stroke-linecap="round" opacity="0.88"/>
    <path d="M33 78 C43.26 49.81 51.65 25.24 80 15.43" fill="none" stroke="#1c1c24" stroke-width="1.08" stroke-linecap="round" opacity="0.87"/>
    <path d="M33 78 C43.26 49.81 54.93 28.58 84.04 21.33" fill="none" stroke="#1c1c24" stroke-width="1.01" stroke-linecap="round" opacity="0.85"/>
    <path d="M33 78 C43.26 49.81 57.64 31.9 87.25 27.12" fill="none" stroke="#1c1c24" stroke-width="0.95" stroke-linecap="round" opacity="0.84"/>
    <path d="M33 78 C43.26 49.81 59.83 35.11 89.73 32.7" fill="none" stroke="#1c1c24" stroke-width="0.89" stroke-linecap="round" opacity="0.82"/>
    <path d="M33 78 C43.26 49.81 61.56 38.15 91.56 37.96" fill="none" stroke="#1c1c24" stroke-width="0.84" stroke-linecap="round" opacity="0.81"/>
    <path d="M33 78 C43.26 49.81 62.89 40.96 92.83 42.82" fill="none" stroke="#1c1c24" stroke-width="0.78" stroke-linecap="round" opacity="0.8"/>
    <path d="M33 78 C43.26 49.81 63.87 43.48 93.65 47.16" fill="none" stroke="#1c1c24" stroke-width="0.74" stroke-linecap="round" opacity="0.79"/>
    <path d="M33 78 C43.26 49.81 64.55 45.59 94.1 50.8" fill="none" stroke="#1c1c24" stroke-width="0.7" stroke-linecap="round" opacity="0.78"/>
    <line x1="33" y1="78" x2="35.74" y2="70.48" stroke="#4750d4" stroke-width="1.3" stroke-linecap="round"/>
    <circle cx="33" cy="78" r="2.4" fill="#4750d4"/>
</svg>
