<svg width="100" height="100" viewBox="0 0 100 100" fill="none" xmlns="http://www.w3.org/2000/svg" role="img" aria-label="Bezier">
    <path d="M33 78 C39.24 48.66 -2.23 57.28 -6.4 27.57" fill="none" stroke="#1c1c24" stroke-width="0.7" stroke-linecap="round" opacity="0.78"/>
    <path d="M33 78 C39.24 48.66 0.91 52.69 0.79 22.69" fill="none" stroke="#1c1c24" stroke-width="0.79" stroke-linecap="round" opacity="0.8"/>
    <path d="M33 78 C39.24 48.66 3.51 46.22 7.36 16.47" fill="none" stroke="#1c1c24" stroke-width="0.88" stroke-linecap="round" opacity="0.82"/>
    <path d="M33 78 C39.24 48.66 7.14 40.13 14.79 11.12" fill="none" stroke="#1c1c24" stroke-width="0.97" stroke-linecap="round" opacity="0.84"/>
    <path d="M33 78 C39.24 48.66 11.72 34.63 22.94 6.8" fill="none" stroke="#1c1c24" stroke-width="1.06" stroke-linecap="round" opacity="0.86"/>
    <path d="M33 78 C39.24 48.66 17.1 29.85 31.61 3.6" fill="none" stroke="#1c1c24" stroke-width="1.14" stroke-linecap="round" opacity="0.88"/>
    <path d="M33 78 C39.24 48.66 23.12 25.9 40.62 1.53" fill="none" stroke="#1c1c24" stroke-width="1.22" stroke-linecap="round" opacity="0.9"/>
    <path d="M33 78 C39.24 48.66 29.61 22.81 49.77 0.6" fill="none" stroke="#1c1c24" stroke-width="1.3" stroke-linecap="round" opacity="0.92"/>
    <path d="M33 78 C39.24 48.66 36.4 20.62 58.88 0.75" fill="none" stroke="#1c1c24" stroke-width="1.22" stroke-linecap="round" opacity="0.9"/>
    <path d="M33 78 C39.24 48.66 41.98 22.32 66.42 4.93" fill="none" stroke="#1c1c24" stroke-width="1.15" stroke-linecap="round" opacity="0.88"/>
    <path d="M33 78 C39.24 48.66 46.5 25.31 72.58 10.49" fill="none" stroke="#1c1c24" stroke-width="1.08" stroke-linecap="round" opacity="0.87"/>
    <path d="M33 78 C39.24 48.66 50.35 28.47 77.74 16.23" fill="none" stroke="#1c1c24" stroke-width="1.01" stroke-linecap="round" opacity="0.85"/>
    <path d="M33 78 C39.24 48.66 53.57 31.69 81.96 22.01" fill="none" stroke="#1c1c24" stroke-width="0.95" stroke-linecap="round" opacity="0.84"/>
    <path d="M33 78 C39.24 48.66 56.2 34.88 85.33 27.68" fill="none" stroke="#1c1c24" stroke-width="0.89" stroke-linecap="round" opacity="0.82"/>
    <path d="M33 78 C39.24 48.66 58.31 37.94 87.92 33.11" fill="none" stroke="#1c1c24" stroke-width="0.84" stroke-linecap="round" opacity="0.81"/>
    <path d="M33 78 C39.24 48.66 59.96 40.8 89.84 38.17" fill="none" stroke="#1c1c24" stroke-width="0.78" stroke-linecap="round" opacity="0.8"/>
    <path d="M33 78 C39.24 48.66 61.2 43.38 91.19 42.75" fill="none" stroke="#1c1c24" stroke-width="0.74" stroke-linecap="round" opacity="0.79"/>
    <path d="M33 78 C39.24 48.66 62.07 45.55 92.05 46.6" fill="none" stroke="#1c1c24" stroke-width="0.7" stroke-linecap="round" opacity="0.78"/>
    <line x1="33" y1="78" x2="34.66" y2="70.17" stroke="#4750d4" stroke-width="1.3" stroke-linecap="round"/>
    <circle cx="33" cy="78" r="2.4" fill="#4750d4"/>
</svg>
