<svg width="100" height="100" viewBox="0 0 100 100" fill="none" xmlns="http://www.w3.org/2000/svg" role="img" aria-label="Bezier">
    <path d="M33 78 C43.26 49.81 2.95 51.49 2.95 21.49" fill="none" stroke="#1c1c24" stroke-width="0.7" stroke-linecap="round" opacity="0.78"/>
    <path d="M33 78 C43.26 49.81 6.66 47.81 10.56 18.06" fill="none" stroke="#1c1c24" stroke-width="0.79" stroke-linecap="round" opacity="0.8"/>
    <path d="M33 78 C43.26 49.81 10.09 42.13 17.74 13.12" fill="none" stroke="#1c1c24" stroke-width="0.88" stroke-linecap="round" opacity="0.82"/>
    <path d="M33 78 C43.26 49.81 14.41 36.92 25.58 9.08" fill="none" stroke="#1c1c24" stroke-width="0.97" stroke-linecap="round" opacity="0.84"/>
    <path d="M33 78 C43.26 49.81 19.52 32.4 33.95 6.1" fill="none" stroke="#1c1c24" stroke-width="1.06" stroke-linecap="round" opacity="0.86"/>
    <path d="M33 78 C43.26 49.81 25.25 28.65 42.65 4.21" fill="none" stroke="#1c1c24" stroke-width="1.14" stroke-linecap="round" opacity="0.88"/>
    <path d="M33 78 C43.26 49.81 31.46 25.73 51.51 3.42" fill="none" stroke="#1c1c24" stroke-width="1.22" stroke-linecap="round" opacity="0.9"/>
    <path d="M33 78 C43.26 49.81 38 23.67 60.37 3.68" fill="none" stroke="#1c1c24" stroke-width="1.3" stroke-linecap="round" opacity="0.92"/>
    <path d="M33 78 C43.26 49.81 44.7 22.46 69.05 4.94" fill="none" stroke="#1c1c24" stroke-width="1.22" stroke-linecap="round" opacity="0.9"/>
    <path d="M33 78 C43.26 49.81 49.67 24.88 75.67 9.92" fill="none" stroke="#1c1c24" stroke-width="1.15" stroke-linecap="round" opacity="0.88"/>
    <path d="M33 78 C43.26 49.81 53.47 28.4 80.8 16.03" fill="none" stroke="#1c1c24" stroke-width="1.08" stroke-linecap="round" opacity="0.87"/>
    <path d="M33 78 C43.26 49.81 56.62 31.97 84.98 22.19" fill="none" stroke="#1c1c24" stroke-width="1.01" stroke-linecap="round" opacity="0.85"/>
    <path d="M33 78 C43.26 49.81 59.17 35.49 88.28 28.24" fill="none" stroke="#1c1c24" stroke-width="0.95" stroke-linecap="round" opacity="0.84"/>
    <path d="M33 78 C43.26 49.81 61.18 38.88 90.79 34.06" fill="none" stroke="#1c1c24" stroke-width="0.89" stroke-linecap="round" opacity="0.82"/>
    <path d="M33 78 C43.26 49.81 62.72 42.08 92.62 39.56" fill="none" stroke="#1c1c24" stroke-width="0.84" stroke-linecap="round" opacity="0.81"/>
    <path d="M33 78 C43.26 49.81 63.86 45.02 93.86 44.63" fill="none" stroke="#1c1c24" stroke-width="0.78" stroke-linecap="round" opacity="0.8"/>
    <path d="M33 78 C43.26 49.81 64.66 47.63 94.62 49.16" fill="none" stroke="#1c1c24" stroke-width="0.74" stroke-linecap="round" opacity="0.79"/>
    <path d="M33 78 C43.26 49.81 65.17 49.81 95.01 52.95" fill="none" stroke="#1c1c24" stroke-width="0.7" stroke-linecap="round" opacity="0.78"/>
    <line x1="33" y1="78" x2="35.74" y2="70.48" stroke="#4750d4" stroke-width="1.3" stroke-linecap="round"/>
    <circle cx="33" cy="78" r="2.4" fill="#4750d4"/>
</svg>
