<svg width="100" height="100" viewBox="0 0 100 100" fill="none" xmlns="http://www.w3.org/2000/svg" role="img" aria-label="Bezier">
    <path d="M13.49 19.43 C27.87 5.54 84.08 104.49 70 78" fill="none" stroke="#1c1c24" stroke-width="1.3" stroke-linecap="round" opacity="0.5"/>
    <path d="M30.31 16.94 C52.45 7.55 87.12 110.2 70 78" fill="none" stroke="#1c1c24" stroke-width="2.88" stroke-linecap="round" opacity="0.7"/>
    <path d="M38.36 20.44 C64.5 15.85 89 113.73 70 78" fill="none" stroke="#1c1c24" stroke-width="3.85" stroke-linecap="round" opacity="0.83"/>
    <path d="M41.77 23.8 C69.84 22.86 90.16 115.92 70 78" fill="none" stroke="#1c1c24" stroke-width="4.46" stroke-linecap="round" opacity="0.9"/>
    <path d="M43.2 26.13 C72.2 27.67 90.88 117.27 70 78" fill="none" stroke="#1c1c24" stroke-width="4.83" stroke-linecap="round" opacity="0.95"/>
    <path d="M43.82 27.61 C73.29 30.76 91.32 118.1 70 78" fill="none" stroke="#1c1c24" stroke-width="5.06" stroke-linecap="round" opacity="0.98"/>
    <path d="M44.1 28.52 C73.81 32.7 91.6 118.62 70 78" fill="none" stroke="#4750d4" stroke-width="5.2" stroke-linecap="round" opacity="1"/>
    <line x1="44.1" y1="28.52" x2="55" y2="30.05" stroke="#4750d4" stroke-width="1.4" stroke-linecap="round" opacity="0.9"/>
    <circle cx="55" cy="30.05" r="2.2" fill="#4750d4"/>
</svg>
