<svg width="100" height="100" viewBox="0 0 100 100" fill="none" xmlns="http://www.w3.org/2000/svg" role="img" aria-label="Bezier">
    <path d="M30 82 C29.9 81.28 29.57 79.11 29.4 77.69 C29.23 76.27 29.08 74.86 28.96 73.48 C28.84 72.1 28.75 70.73 28.68 69.39 C28.62 68.04 28.58 66.71 28.57 65.41 C28.56 64.11 28.57 62.82 28.62 61.56 C28.66 60.3 28.73 59.06 28.83 57.85 C28.93 56.63 29.05 55.44 29.21 54.27 C29.36 53.1 29.54 51.96 29.75 50.84 C29.96 49.72 30.2 48.63 30.46 47.57 C30.72 46.5 31.01 45.46 31.33 44.45 C31.65 43.44 32 42.45 32.38 41.5 C32.75 40.55 33.15 39.62 33.58 38.72 C34.01 37.83 34.47 36.96 34.96 36.13 C35.45 35.29 35.96 34.49 36.51 33.72 C37.05 32.95 37.62 32.21 38.22 31.51 C38.82 30.8 39.45 30.13 40.1 29.49 C40.76 28.86 41.44 28.25 42.16 27.69 C42.87 27.12 43.61 26.59 44.38 26.09 C45.15 25.6 45.95 25.14 46.78 24.72 C47.61 24.3 48.46 23.92 49.35 23.58 C50.23 23.24 51.14 22.93 52.09 22.67 C53.03 22.41 54.11 22.18 55 22 C55.89 21.82 56.62 21.68 57.42 21.57 C58.21 21.47 58.99 21.4 59.75 21.37 C60.51 21.34 61.26 21.35 62 21.39 C62.73 21.43 63.45 21.51 64.15 21.62 C64.84 21.74 65.53 21.88 66.19 22.06 C66.85 22.24 67.5 22.46 68.12 22.7 C68.75 22.95 69.36 23.23 69.94 23.53 C70.53 23.84 71.09 24.18 71.63 24.55 C72.17 24.92 72.69 25.31 73.19 25.74 C73.68 26.17 74.16 26.62 74.61 27.1 C75.05 27.58 75.48 28.09 75.88 28.63 C76.27 29.16 76.65 29.72 76.99 30.3 C77.33 30.89 77.65 31.5 77.94 32.13 C78.23 32.76 78.49 33.42 78.72 34.1 C78.96 34.77 79.16 35.47 79.33 36.2 C79.5 36.92 79.64 37.66 79.75 38.42 C79.86 39.18 79.94 39.96 79.98 40.76 C80.02 41.56 80.04 42.38 80.01 43.22 C79.99 44.05 79.93 44.91 79.84 45.78 C79.74 46.65 79.61 47.53 79.45 48.43 C79.28 49.33 79.08 50.25 78.84 51.17 C78.6 52.1 78.14 53.53 78 54" fill="none" stroke="#1c1c24" stroke-width="1.1" stroke-linecap="round"/>
    <path d="M29.23 82.12 C29.09 81.4 28.64 79.23 28.4 77.81 C28.15 76.39 27.95 74.98 27.77 73.58 C27.59 72.19 27.44 70.81 27.32 69.45 C27.2 68.09 27.11 66.75 27.04 65.42 C26.98 64.1 26.94 62.79 26.94 61.5 C26.93 60.22 26.95 58.95 27 57.7 C27.06 56.45 27.14 55.22 27.25 54.01 C27.36 52.81 27.49 51.62 27.66 50.45 C27.83 49.29 28.03 48.14 28.26 47.02 C28.49 45.9 28.75 44.8 29.04 43.73 C29.33 42.65 29.66 41.6 30.01 40.57 C30.37 39.54 30.75 38.54 31.17 37.56 C31.59 36.59 32.05 35.64 32.53 34.71 C33.02 33.79 33.54 32.89 34.1 32.03 C34.66 31.16 35.25 30.32 35.88 29.52 C36.51 28.71 37.17 27.93 37.87 27.2 C38.58 26.46 39.31 25.75 40.09 25.08 C40.86 24.41 41.67 23.78 42.52 23.19 C43.36 22.59 44.24 22.04 45.16 21.53 C46.07 21.02 47.02 20.55 48.01 20.12 C48.99 19.7 50.01 19.31 51.06 18.98 C52.1 18.64 53.32 18.35 54.29 18.11 C55.26 17.87 56 17.69 56.88 17.53 C57.77 17.37 58.69 17.25 59.59 17.18 C60.48 17.1 61.37 17.07 62.25 17.08 C63.12 17.09 63.99 17.15 64.85 17.24 C65.71 17.34 66.55 17.48 67.38 17.67 C68.21 17.85 69.03 18.08 69.83 18.35 C70.63 18.62 71.41 18.94 72.17 19.29 C72.93 19.65 73.68 20.05 74.39 20.49 C75.11 20.93 75.8 21.41 76.46 21.93 C77.13 22.44 77.76 23 78.37 23.6 C78.97 24.19 79.55 24.82 80.09 25.48 C80.63 26.15 81.15 26.85 81.62 27.57 C82.09 28.3 82.53 29.06 82.93 29.85 C83.33 30.63 83.7 31.45 84.03 32.28 C84.35 33.12 84.64 33.99 84.89 34.87 C85.14 35.76 85.35 36.67 85.52 37.6 C85.69 38.52 85.82 39.47 85.91 40.44 C86.01 41.4 86.06 42.39 86.06 43.39 C86.07 44.39 86.04 45.41 85.97 46.44 C85.89 47.47 85.78 48.51 85.62 49.57 C85.46 50.63 85.27 51.7 85.02 52.78 C84.78 53.86 84.31 55.51 84.17 56.06" fill="none" stroke="#1c1c24" stroke-width="1.48" stroke-linecap="round"/>
    <path d="M28.46 82.24 C28.28 81.52 27.71 79.36 27.4 77.93 C27.08 76.51 26.82 75.09 26.58 73.69 C26.34 72.28 26.14 70.89 25.96 69.52 C25.78 68.14 25.63 66.78 25.52 65.44 C25.4 64.09 25.31 62.76 25.26 61.45 C25.2 60.13 25.17 58.83 25.18 57.55 C25.18 56.27 25.22 55 25.28 53.76 C25.35 52.51 25.45 51.28 25.58 50.06 C25.71 48.85 25.87 47.65 26.06 46.48 C26.26 45.3 26.49 44.14 26.75 43 C27.01 41.86 27.31 40.74 27.65 39.64 C27.98 38.54 28.35 37.46 28.76 36.4 C29.17 35.35 29.62 34.31 30.11 33.3 C30.6 32.28 31.13 31.29 31.7 30.33 C32.27 29.37 32.88 28.43 33.54 27.53 C34.2 26.62 34.9 25.74 35.64 24.9 C36.39 24.06 37.18 23.24 38.01 22.47 C38.85 21.7 39.73 20.97 40.65 20.28 C41.57 19.59 42.53 18.94 43.54 18.33 C44.54 17.73 45.59 17.17 46.67 16.67 C47.75 16.16 48.87 15.7 50.02 15.29 C51.18 14.88 52.53 14.52 53.59 14.22 C54.64 13.92 55.38 13.7 56.35 13.49 C57.32 13.28 58.4 13.1 59.42 12.98 C60.45 12.86 61.48 12.79 62.5 12.77 C63.52 12.75 64.54 12.78 65.56 12.86 C66.57 12.95 67.58 13.08 68.58 13.27 C69.58 13.46 70.57 13.7 71.54 14 C72.51 14.3 73.47 14.65 74.41 15.05 C75.34 15.46 76.26 15.92 77.15 16.43 C78.04 16.94 78.91 17.5 79.74 18.11 C80.57 18.72 81.37 19.39 82.13 20.09 C82.9 20.8 83.63 21.55 84.31 22.34 C85 23.13 85.64 23.97 86.25 24.84 C86.85 25.71 87.41 26.62 87.92 27.56 C88.44 28.5 88.91 29.47 89.33 30.47 C89.75 31.47 90.13 32.5 90.45 33.55 C90.78 34.6 91.06 35.68 91.29 36.77 C91.53 37.86 91.71 38.98 91.85 40.11 C91.99 41.25 92.08 42.4 92.12 43.56 C92.16 44.73 92.15 45.91 92.1 47.1 C92.05 48.29 91.94 49.49 91.8 50.71 C91.65 51.92 91.45 53.15 91.21 54.38 C90.96 55.62 90.48 57.49 90.33 58.11" fill="none" stroke="#1c1c24" stroke-width="1.85" stroke-linecap="round"/>
    <path d="M27.69 82.36 C27.47 81.64 26.78 79.48 26.39 78.05 C26.01 76.63 25.69 75.2 25.39 73.79 C25.09 72.38 24.83 70.97 24.6 69.58 C24.36 68.19 24.16 66.82 23.99 65.45 C23.82 64.08 23.68 62.73 23.58 61.39 C23.47 60.05 23.4 58.72 23.35 57.4 C23.31 56.09 23.3 54.79 23.32 53.5 C23.34 52.21 23.4 50.93 23.49 49.67 C23.58 48.41 23.7 47.17 23.86 45.93 C24.03 44.7 24.22 43.48 24.46 42.28 C24.69 41.07 24.97 39.89 25.28 38.71 C25.6 37.54 25.95 36.38 26.35 35.24 C26.75 34.11 27.19 32.98 27.68 31.88 C28.17 30.78 28.71 29.7 29.29 28.64 C29.88 27.58 30.51 26.54 31.2 25.54 C31.89 24.53 32.62 23.55 33.42 22.6 C34.21 21.66 35.05 20.74 35.94 19.87 C36.84 19 37.79 18.16 38.78 17.37 C39.78 16.58 40.83 15.83 41.92 15.14 C43.01 14.45 44.15 13.8 45.33 13.21 C46.51 12.62 47.74 12.08 48.99 11.6 C50.25 11.12 51.74 10.69 52.88 10.33 C54.02 9.97 54.75 9.71 55.82 9.45 C56.88 9.19 58.11 8.95 59.26 8.79 C60.42 8.62 61.58 8.51 62.75 8.46 C63.92 8.41 65.09 8.41 66.26 8.48 C67.43 8.55 68.61 8.68 69.77 8.87 C70.94 9.07 72.1 9.32 73.25 9.65 C74.39 9.97 75.53 10.36 76.64 10.81 C77.75 11.26 78.85 11.78 79.91 12.36 C80.97 12.95 82.01 13.59 83.01 14.3 C84.01 15 84.98 15.77 85.9 16.59 C86.82 17.4 87.7 18.28 88.53 19.2 C89.36 20.12 90.14 21.1 90.88 22.11 C91.61 23.12 92.29 24.18 92.91 25.28 C93.54 26.37 94.11 27.5 94.63 28.66 C95.15 29.82 95.61 31.01 96.01 32.23 C96.42 33.44 96.77 34.68 97.06 35.94 C97.36 37.21 97.6 38.49 97.78 39.79 C97.97 41.09 98.09 42.4 98.17 43.73 C98.24 45.06 98.26 46.41 98.23 47.76 C98.2 49.11 98.11 50.48 97.97 51.85 C97.83 53.22 97.64 54.6 97.39 55.99 C97.15 57.37 96.65 59.47 96.5 60.17" fill="none" stroke="#1c1c24" stroke-width="2.23" stroke-linecap="round"/>
    <path d="M26.92 82.48 C26.66 81.76 25.84 79.61 25.39 78.18 C24.94 76.74 24.56 75.31 24.2 73.89 C23.84 72.47 23.52 71.05 23.23 69.65 C22.95 68.25 22.69 66.85 22.47 65.46 C22.25 64.08 22.06 62.7 21.9 61.33 C21.74 59.96 21.62 58.6 21.53 57.26 C21.44 55.91 21.38 54.57 21.36 53.24 C21.34 51.91 21.35 50.59 21.4 49.28 C21.45 47.98 21.54 46.68 21.67 45.39 C21.79 44.1 21.96 42.82 22.17 41.55 C22.37 40.29 22.62 39.03 22.92 37.78 C23.21 36.54 23.55 35.3 23.94 34.08 C24.33 32.86 24.76 31.65 25.26 30.46 C25.75 29.27 26.29 28.1 26.89 26.94 C27.49 25.79 28.14 24.65 28.86 23.55 C29.58 22.44 30.35 21.35 31.19 20.31 C32.02 19.26 32.92 18.24 33.87 17.26 C34.83 16.29 35.84 15.35 36.92 14.46 C37.99 13.57 39.12 12.73 40.3 11.94 C41.48 11.16 42.71 10.42 43.99 9.75 C45.27 9.08 46.6 8.46 47.96 7.91 C49.33 7.36 50.95 6.86 52.17 6.44 C53.39 6.02 54.13 5.72 55.28 5.41 C56.44 5.1 57.81 4.81 59.1 4.6 C60.38 4.39 61.69 4.23 63 4.15 C64.31 4.07 65.64 4.05 66.97 4.1 C68.3 4.15 69.64 4.28 70.97 4.47 C72.3 4.67 73.64 4.94 74.95 5.29 C76.27 5.64 77.59 6.07 78.87 6.57 C80.16 7.07 81.44 7.65 82.67 8.3 C83.91 8.95 85.12 9.69 86.29 10.48 C87.45 11.28 88.58 12.15 89.66 13.08 C90.74 14.01 91.77 15.01 92.75 16.06 C93.72 17.11 94.64 18.22 95.5 19.38 C96.36 20.54 97.17 21.75 97.91 22.99 C98.64 24.24 99.32 25.53 99.93 26.85 C100.54 28.17 101.09 29.52 101.58 30.9 C102.06 32.28 102.48 33.69 102.84 35.12 C103.19 36.55 103.48 38 103.72 39.46 C103.95 40.93 104.11 42.41 104.22 43.9 C104.33 45.4 104.37 46.9 104.36 48.42 C104.35 49.93 104.27 51.46 104.14 52.99 C104.01 54.52 103.82 56.05 103.58 57.59 C103.33 59.13 102.82 61.45 102.67 62.22" fill="none" stroke="#1c1c24" stroke-width="2.6" stroke-linecap="round"/>
    <circle cx="30" cy="82" r="3.2" fill="#4750d4"/>
</svg>
