<svg width="100" height="100" viewBox="0 0 100 100" fill="none" xmlns="http://www.w3.org/2000/svg" role="img" aria-label="Bezier">
    <path d="M30 82 C29.9 81.28 29.57 79.11 29.4 77.69 C29.23 76.27 29.08 74.86 28.96 73.48 C28.84 72.1 28.75 70.73 28.68 69.39 C28.62 68.04 28.58 66.71 28.57 65.41 C28.56 64.11 28.57 62.82 28.62 61.56 C28.66 60.3 28.73 59.06 28.83 57.85 C28.93 56.63 29.05 55.44 29.21 54.27 C29.36 53.1 29.54 51.96 29.75 50.84 C29.96 49.72 30.2 48.63 30.46 47.57 C30.72 46.5 31.01 45.46 31.33 44.45 C31.65 43.44 32 42.45 32.38 41.5 C32.75 40.55 33.15 39.62 33.58 38.72 C34.01 37.83 34.47 36.96 34.96 36.13 C35.45 35.29 35.96 34.49 36.51 33.72 C37.05 32.95 37.62 32.21 38.22 31.51 C38.82 30.8 39.45 30.13 40.1 29.49 C40.76 28.86 41.44 28.25 42.16 27.69 C42.87 27.12 43.61 26.59 44.38 26.09 C45.15 25.6 45.95 25.14 46.78 24.72 C47.61 24.3 48.46 23.92 49.35 23.58 C50.23 23.24 51.14 22.93 52.09 22.67 C53.03 22.41 54.11 22.18 55 22 C55.89 21.82 56.62 21.68 57.42 21.57 C58.21 21.47 58.99 21.4 59.75 21.37 C60.51 21.34 61.26 21.35 62 21.39 C62.73 21.43 63.45 21.51 64.15 21.62 C64.84 21.74 65.53 21.88 66.19 22.06 C66.85 22.24 67.5 22.46 68.12 22.7 C68.75 22.95 69.36 23.23 69.94 23.53 C70.53 23.84 71.09 24.18 71.63 24.55 C72.17 24.92 72.69 25.31 73.19 25.74 C73.68 26.17 74.16 26.62 74.61 27.1 C75.05 27.58 75.48 28.09 75.88 28.63 C76.27 29.16 76.65 29.72 76.99 30.3 C77.33 30.89 77.65 31.5 77.94 32.13 C78.23 32.76 78.49 33.42 78.72 34.1 C78.96 34.77 79.16 35.47 79.33 36.2 C79.5 36.92 79.64 37.66 79.75 38.42 C79.86 39.18 79.94 39.96 79.98 40.76 C80.02 41.56 80.04 42.38 80.01 43.22 C79.99 44.05 79.93 44.91 79.84 45.78 C79.74 46.65 79.61 47.53 79.45 48.43 C79.28 49.33 79.08 50.25 78.84 51.17 C78.6 52.1 78.14 53.53 78 54" fill="none" stroke="#1c1c24" stroke-width="1.1" stroke-linecap="round"/>
    <path d="M28.93 82.17 C28.78 81.45 28.28 79.28 28.01 77.86 C27.74 76.43 27.52 75.02 27.31 73.62 C27.11 72.23 26.94 70.84 26.8 69.48 C26.65 68.11 26.54 66.76 26.46 65.43 C26.37 64.1 26.32 62.78 26.29 61.48 C26.27 60.18 26.27 58.9 26.3 57.64 C26.34 56.38 26.4 55.14 26.49 53.91 C26.58 52.69 26.71 51.49 26.86 50.3 C27.01 49.12 27.2 47.95 27.42 46.81 C27.63 45.67 27.88 44.55 28.16 43.45 C28.44 42.35 28.75 41.27 29.1 40.21 C29.45 39.16 29.83 38.13 30.25 37.12 C30.66 36.11 31.11 35.13 31.6 34.17 C32.09 33.21 32.61 32.28 33.18 31.37 C33.74 30.47 34.34 29.59 34.98 28.75 C35.62 27.91 36.3 27.09 37.02 26.31 C37.73 25.53 38.49 24.79 39.29 24.08 C40.09 23.37 40.92 22.7 41.8 22.07 C42.67 21.44 43.59 20.84 44.54 20.3 C45.48 19.75 46.47 19.25 47.49 18.79 C48.51 18.34 49.57 17.92 50.66 17.56 C51.75 17.2 53.02 16.88 54.02 16.61 C55.02 16.35 55.76 16.15 56.68 15.98 C57.6 15.8 58.58 15.66 59.52 15.56 C60.47 15.47 61.41 15.42 62.34 15.42 C63.28 15.42 64.21 15.47 65.12 15.56 C66.04 15.65 66.95 15.79 67.84 15.98 C68.74 16.16 69.62 16.4 70.49 16.68 C71.35 16.96 72.21 17.29 73.03 17.66 C73.86 18.04 74.67 18.46 75.45 18.92 C76.23 19.39 77 19.9 77.72 20.46 C78.45 21.01 79.15 21.61 79.82 22.25 C80.48 22.88 81.12 23.56 81.72 24.28 C82.31 24.99 82.88 25.74 83.4 26.52 C83.92 27.3 84.41 28.12 84.85 28.97 C85.3 29.81 85.7 30.69 86.07 31.59 C86.43 32.49 86.75 33.41 87.03 34.36 C87.31 35.31 87.55 36.29 87.74 37.28 C87.94 38.27 88.09 39.28 88.2 40.31 C88.31 41.34 88.37 42.39 88.39 43.46 C88.41 44.52 88.39 45.6 88.33 46.69 C88.26 47.78 88.15 48.89 88 50.01 C87.84 51.13 87.64 52.26 87.4 53.4 C87.16 54.54 86.68 56.27 86.54 56.85" fill="none" stroke="#1c1c24" stroke-width="1.85" stroke-linecap="round"/>
    <path d="M27.87 82.33 C27.66 81.62 26.99 79.45 26.62 78.03 C26.26 76.6 25.95 75.17 25.67 73.76 C25.38 72.35 25.13 70.96 24.91 69.57 C24.69 68.18 24.5 66.81 24.34 65.45 C24.19 64.08 24.06 62.74 23.97 61.4 C23.87 60.07 23.81 58.74 23.77 57.44 C23.74 56.13 23.74 54.84 23.77 53.56 C23.81 52.28 23.87 51.01 23.97 49.76 C24.07 48.51 24.2 47.28 24.37 46.06 C24.54 44.84 24.74 43.63 24.99 42.45 C25.23 41.26 25.51 40.08 25.83 38.93 C26.15 37.77 26.5 36.63 26.91 35.51 C27.31 34.39 27.75 33.29 28.24 32.21 C28.73 31.13 29.26 30.06 29.85 29.03 C30.43 27.99 31.06 26.98 31.74 26 C32.42 25.01 33.15 24.05 33.93 23.13 C34.71 22.21 35.54 21.32 36.42 20.47 C37.3 19.62 38.23 18.81 39.21 18.04 C40.19 17.27 41.22 16.55 42.29 15.88 C43.36 15.2 44.48 14.58 45.64 14.01 C46.8 13.44 48 12.92 49.23 12.45 C50.47 11.99 51.92 11.57 53.04 11.23 C54.16 10.88 54.9 10.63 55.94 10.38 C56.98 10.14 58.17 9.91 59.3 9.76 C60.42 9.6 61.56 9.5 62.69 9.45 C63.83 9.41 64.97 9.42 66.1 9.49 C67.23 9.56 68.37 9.69 69.5 9.89 C70.62 10.08 71.75 10.33 72.85 10.65 C73.96 10.97 75.05 11.35 76.13 11.79 C77.2 12.23 78.25 12.74 79.27 13.3 C80.3 13.87 81.3 14.49 82.26 15.18 C83.22 15.86 84.15 16.6 85.03 17.39 C85.91 18.19 86.76 19.04 87.56 19.93 C88.35 20.82 89.11 21.76 89.81 22.74 C90.51 23.72 91.16 24.75 91.76 25.8 C92.36 26.86 92.91 27.96 93.41 29.08 C93.9 30.2 94.34 31.36 94.73 32.53 C95.12 33.71 95.45 34.91 95.73 36.14 C96.01 37.36 96.24 38.6 96.41 39.86 C96.59 41.12 96.71 42.4 96.77 43.69 C96.84 44.98 96.85 46.29 96.82 47.61 C96.78 48.92 96.69 50.25 96.55 51.59 C96.4 52.92 96.21 54.27 95.96 55.62 C95.72 56.97 95.22 59.01 95.08 59.69" fill="none" stroke="#1c1c24" stroke-width="2.6" stroke-linecap="round"/>
    <circle cx="30" cy="82" r="3.2" fill="#4750d4"/>
</svg>
