<svg width="100" height="100" viewBox="0 0 100 100" fill="none" xmlns="http://www.w3.org/2000/svg" role="img" aria-label="Bezier">
    <path d="M30 82 C29.9 81.28 29.57 79.11 29.4 77.69 C29.23 76.27 29.08 74.86 28.96 73.48 C28.84 72.1 28.75 70.73 28.68 69.39 C28.62 68.04 28.58 66.71 28.57 65.41 C28.56 64.11 28.57 62.82 28.62 61.56 C28.66 60.3 28.73 59.06 28.83 57.85 C28.93 56.63 29.05 55.44 29.21 54.27 C29.36 53.1 29.54 51.96 29.75 50.84 C29.96 49.72 30.2 48.63 30.46 47.57 C30.72 46.5 31.01 45.46 31.33 44.45 C31.65 43.44 32 42.45 32.38 41.5 C32.75 40.55 33.15 39.62 33.58 38.72 C34.01 37.83 34.47 36.96 34.96 36.13 C35.45 35.29 35.96 34.49 36.51 33.72 C37.05 32.95 37.62 32.21 38.22 31.51 C38.82 30.8 39.45 30.13 40.1 29.49 C40.76 28.86 41.44 28.25 42.16 27.69 C42.87 27.12 43.61 26.59 44.38 26.09 C45.15 25.6 45.95 25.14 46.78 24.72 C47.61 24.3 48.46 23.92 49.35 23.58 C50.23 23.24 51.14 22.93 52.09 22.67 C53.03 22.41 54.11 22.18 55 22 C55.89 21.82 56.62 21.68 57.42 21.57 C58.21 21.47 58.99 21.4 59.75 21.37 C60.51 21.34 61.26 21.35 62 21.39 C62.73 21.43 63.45 21.51 64.15 21.62 C64.84 21.74 65.53 21.88 66.19 22.06 C66.85 22.24 67.5 22.46 68.12 22.7 C68.75 22.95 69.36 23.23 69.94 23.53 C70.53 23.84 71.09 24.18 71.63 24.55 C72.17 24.92 72.69 25.31 73.19 25.74 C73.68 26.17 74.16 26.62 74.61 27.1 C75.05 27.58 75.48 28.09 75.88 28.63 C76.27 29.16 76.65 29.72 76.99 30.3 C77.33 30.89 77.65 31.5 77.94 32.13 C78.23 32.76 78.49 33.42 78.72 34.1 C78.96 34.77 79.16 35.47 79.33 36.2 C79.5 36.92 79.64 37.66 79.75 38.42 C79.86 39.18 79.94 39.96 79.98 40.76 C80.02 41.56 80.04 42.38 80.01 43.22 C79.99 44.05 79.93 44.91 79.84 45.78 C79.74 46.65 79.61 47.53 79.45 48.43 C79.28 49.33 79.08 50.25 78.84 51.17 C78.6 52.1 78.14 53.53 78 54" fill="none" stroke="#1c1c24" stroke-width="1.1" stroke-linecap="round"/>
    <path d="M29.11 82.14 C28.97 81.42 28.5 79.25 28.24 77.83 C27.99 76.4 27.78 74.99 27.59 73.6 C27.4 72.2 27.24 70.82 27.11 69.46 C26.98 68.1 26.88 66.75 26.81 65.43 C26.74 64.1 26.69 62.79 26.68 61.5 C26.66 60.2 26.68 58.93 26.72 57.68 C26.77 56.42 26.84 55.19 26.94 53.97 C27.05 52.76 27.18 51.57 27.34 50.39 C27.51 49.22 27.7 48.07 27.92 46.94 C28.15 45.81 28.4 44.7 28.69 43.61 C28.98 42.53 29.29 41.47 29.65 40.43 C30 39.39 30.38 38.37 30.8 37.39 C31.22 36.4 31.67 35.43 32.16 34.5 C32.65 33.56 33.17 32.65 33.73 31.77 C34.29 30.88 34.89 30.03 35.52 29.21 C36.15 28.39 36.82 27.6 37.53 26.84 C38.24 26.09 38.98 25.36 39.77 24.68 C40.55 23.99 41.37 23.34 42.23 22.74 C43.09 22.13 43.98 21.56 44.91 21.04 C45.84 20.51 46.8 20.03 47.8 19.59 C48.8 19.15 49.83 18.76 50.9 18.41 C51.96 18.07 53.2 17.76 54.18 17.51 C55.17 17.26 55.9 17.07 56.8 16.91 C57.7 16.75 58.65 16.61 59.56 16.53 C60.48 16.45 61.39 16.41 62.29 16.42 C63.19 16.42 64.08 16.47 64.96 16.57 C65.84 16.66 66.71 16.8 67.57 16.99 C68.42 17.18 69.27 17.41 70.09 17.68 C70.92 17.96 71.73 18.28 72.52 18.64 C73.3 19 74.07 19.41 74.82 19.86 C75.56 20.31 76.28 20.81 76.97 21.34 C77.66 21.87 78.32 22.45 78.95 23.06 C79.58 23.67 80.18 24.32 80.74 25 C81.31 25.68 81.84 26.4 82.33 27.15 C82.82 27.9 83.28 28.68 83.7 29.49 C84.12 30.3 84.5 31.14 84.84 32.01 C85.18 32.87 85.49 33.76 85.75 34.67 C86.01 35.58 86.23 36.52 86.41 37.47 C86.59 38.42 86.73 39.4 86.83 40.39 C86.93 41.38 86.98 42.39 87 43.42 C87.01 44.44 86.98 45.48 86.91 46.54 C86.84 47.59 86.73 48.66 86.57 49.75 C86.42 50.83 86.22 51.92 85.97 53.03 C85.73 54.13 85.26 55.81 85.12 56.37" fill="none" stroke="#1c1c24" stroke-width="1.6" stroke-linecap="round"/>
    <path d="M28.22 82.28 C28.03 81.56 27.42 79.4 27.09 77.97 C26.75 76.54 26.47 75.12 26.22 73.72 C25.96 72.31 25.73 70.92 25.54 69.54 C25.35 68.16 25.18 66.79 25.05 65.44 C24.92 64.09 24.81 62.75 24.74 61.43 C24.67 60.11 24.63 58.8 24.62 57.51 C24.61 56.21 24.63 54.94 24.68 53.68 C24.73 52.42 24.82 51.17 24.93 49.94 C25.05 48.72 25.2 47.5 25.39 46.31 C25.57 45.12 25.79 43.94 26.04 42.78 C26.3 41.62 26.59 40.48 26.92 39.36 C27.25 38.23 27.61 37.13 28.02 36.05 C28.43 34.96 28.87 33.9 29.36 32.86 C29.85 31.82 30.38 30.8 30.96 29.81 C31.53 28.82 32.15 27.85 32.82 26.91 C33.49 25.98 34.2 25.07 34.96 24.19 C35.72 23.32 36.52 22.47 37.38 21.67 C38.23 20.87 39.13 20.1 40.07 19.38 C41.02 18.66 42.01 17.98 43.04 17.35 C44.07 16.72 45.15 16.13 46.26 15.6 C47.37 15.07 48.52 14.58 49.71 14.16 C50.89 13.73 52.29 13.34 53.37 13.02 C54.45 12.71 55.18 12.47 56.19 12.25 C57.19 12.02 58.31 11.83 59.37 11.69 C60.44 11.56 61.51 11.47 62.58 11.44 C63.64 11.41 64.71 11.44 65.77 11.51 C66.84 11.59 67.9 11.73 68.95 11.92 C69.99 12.11 71.04 12.35 72.06 12.66 C73.09 12.96 74.11 13.33 75.09 13.75 C76.08 14.17 77.06 14.64 78 15.18 C78.94 15.71 79.86 16.3 80.75 16.94 C81.63 17.58 82.48 18.27 83.29 19.01 C84.1 19.75 84.88 20.54 85.61 21.38 C86.34 22.21 87.03 23.09 87.67 24 C88.31 24.92 88.91 25.87 89.46 26.86 C90.01 27.84 90.51 28.87 90.96 29.91 C91.41 30.96 91.81 32.04 92.16 33.14 C92.52 34.24 92.82 35.37 93.07 36.52 C93.32 37.66 93.52 38.83 93.67 40.01 C93.83 41.2 93.93 42.4 93.98 43.61 C94.03 44.83 94.03 46.06 93.99 47.3 C93.94 48.54 93.84 49.8 93.7 51.06 C93.55 52.32 93.35 53.6 93.11 54.88 C92.87 56.16 92.38 58.1 92.23 58.74" fill="none" stroke="#1c1c24" stroke-width="2.1" stroke-linecap="round"/>
    <path d="M27.33 82.42 C27.1 81.7 26.35 79.54 25.93 78.11 C25.52 76.68 25.17 75.25 24.84 73.84 C24.52 72.42 24.23 71.01 23.97 69.61 C23.71 68.22 23.48 66.83 23.29 65.46 C23.09 64.08 22.93 62.71 22.8 61.36 C22.67 60.01 22.57 58.67 22.51 57.34 C22.45 56 22.41 54.69 22.42 53.38 C22.42 52.07 22.45 50.78 22.53 49.49 C22.6 48.21 22.7 46.94 22.85 45.68 C23 44.42 23.18 43.18 23.4 41.94 C23.62 40.71 23.88 39.49 24.19 38.28 C24.5 37.08 24.84 35.88 25.24 34.71 C25.63 33.53 26.07 32.37 26.56 31.23 C27.05 30.09 27.59 28.96 28.18 27.86 C28.78 26.75 29.42 25.67 30.12 24.62 C30.82 23.57 31.57 22.53 32.39 21.54 C33.2 20.55 34.06 19.58 34.99 18.67 C35.91 17.75 36.89 16.86 37.92 16.03 C38.95 15.19 40.04 14.4 41.17 13.66 C42.3 12.93 43.49 12.24 44.71 11.61 C45.94 10.99 47.21 10.41 48.52 9.9 C49.82 9.39 51.38 8.92 52.55 8.54 C53.73 8.15 54.46 7.87 55.57 7.58 C56.68 7.3 57.97 7.04 59.19 6.85 C60.4 6.67 61.63 6.54 62.87 6.47 C64.1 6.4 65.35 6.4 66.59 6.46 C67.83 6.52 69.08 6.65 70.32 6.84 C71.56 7.04 72.81 7.3 74.03 7.64 C75.26 7.97 76.48 8.38 77.67 8.85 C78.86 9.33 80.04 9.88 81.19 10.49 C82.33 11.1 83.45 11.79 84.52 12.54 C85.6 13.28 86.64 14.1 87.63 14.97 C88.63 15.84 89.58 16.77 90.48 17.75 C91.37 18.73 92.22 19.77 93.01 20.85 C93.8 21.93 94.54 23.06 95.22 24.22 C95.9 25.38 96.52 26.59 97.08 27.82 C97.64 29.06 98.14 30.33 98.58 31.62 C99.02 32.91 99.41 34.23 99.73 35.56 C100.05 36.9 100.31 38.26 100.52 39.64 C100.73 41.01 100.87 42.41 100.96 43.81 C101.05 45.22 101.08 46.64 101.06 48.06 C101.04 49.49 100.96 50.93 100.82 52.37 C100.68 53.82 100.49 55.27 100.25 56.73 C100 58.19 99.5 60.38 99.35 61.12" fill="none" stroke="#1c1c24" stroke-width="2.6" stroke-linecap="round"/>
    <circle cx="30" cy="82" r="3.2" fill="#4750d4"/>
</svg>
