<svg width="100" height="100" viewBox="0 0 100 100" fill="none" xmlns="http://www.w3.org/2000/svg" role="img" aria-label="Bezier">
    <path d="M30 82 C29.9 81.28 29.57 79.11 29.4 77.69 C29.23 76.27 29.08 74.86 28.96 73.48 C28.84 72.1 28.75 70.73 28.68 69.39 C28.62 68.04 28.58 66.71 28.57 65.41 C28.56 64.11 28.57 62.82 28.62 61.56 C28.66 60.3 28.73 59.06 28.83 57.85 C28.93 56.63 29.05 55.44 29.21 54.27 C29.36 53.1 29.54 51.96 29.75 50.84 C29.96 49.72 30.2 48.63 30.46 47.57 C30.72 46.5 31.01 45.46 31.33 44.45 C31.65 43.44 32 42.45 32.38 41.5 C32.75 40.55 33.15 39.62 33.58 38.72 C34.01 37.83 34.47 36.96 34.96 36.13 C35.45 35.29 35.96 34.49 36.51 33.72 C37.05 32.95 37.62 32.21 38.22 31.51 C38.82 30.8 39.45 30.13 40.1 29.49 C40.76 28.86 41.44 28.25 42.16 27.69 C42.87 27.12 43.61 26.59 44.38 26.09 C45.15 25.6 45.95 25.14 46.78 24.72 C47.61 24.3 48.46 23.92 49.35 23.58 C50.23 23.24 51.14 22.93 52.09 22.67 C53.03 22.41 54.11 22.18 55 22 C55.89 21.82 56.62 21.68 57.42 21.57 C58.21 21.47 58.99 21.4 59.75 21.37 C60.51 21.34 61.26 21.35 62 21.39 C62.73 21.43 63.45 21.51 64.15 21.62 C64.84 21.74 65.53 21.88 66.19 22.06 C66.85 22.24 67.5 22.46 68.12 22.7 C68.75 22.95 69.36 23.23 69.94 23.53 C70.53 23.84 71.09 24.18 71.63 24.55 C72.17 24.92 72.69 25.31 73.19 25.74 C73.68 26.17 74.16 26.62 74.61 27.1 C75.05 27.58 75.48 28.09 75.88 28.63 C76.27 29.16 76.65 29.72 76.99 30.3 C77.33 30.89 77.65 31.5 77.94 32.13 C78.23 32.76 78.49 33.42 78.72 34.1 C78.96 34.77 79.16 35.47 79.33 36.2 C79.5 36.92 79.64 37.66 79.75 38.42 C79.86 39.18 79.94 39.96 79.98 40.76 C80.02 41.56 80.04 42.38 80.01 43.22 C79.99 44.05 79.93 44.91 79.84 45.78 C79.74 46.65 79.61 47.53 79.45 48.43 C79.28 49.33 79.08 50.25 78.84 51.17 C78.6 52.1 78.14 53.53 78 54" fill="none" stroke="#1c1c24" stroke-width="1.1" stroke-linecap="round"/>
    <path d="M29.17 82.13 C29.03 81.41 28.57 79.24 28.32 77.82 C28.07 76.4 27.86 74.98 27.68 73.59 C27.49 72.2 27.34 70.82 27.22 69.46 C27.09 68.1 26.99 66.75 26.93 65.42 C26.86 64.1 26.82 62.79 26.81 61.5 C26.8 60.21 26.82 58.94 26.86 57.69 C26.91 56.44 26.99 55.2 27.09 53.99 C27.2 52.78 27.34 51.59 27.5 50.42 C27.67 49.25 27.86 48.1 28.09 46.98 C28.32 45.85 28.58 44.75 28.87 43.67 C29.15 42.59 29.47 41.53 29.83 40.5 C30.18 39.47 30.57 38.46 30.99 37.47 C31.41 36.49 31.86 35.53 32.35 34.6 C32.84 33.67 33.36 32.77 33.92 31.9 C34.48 31.02 35.07 30.18 35.7 29.36 C36.33 28.55 37 27.77 37.7 27.02 C38.41 26.27 39.15 25.56 39.93 24.88 C40.71 24.2 41.52 23.56 42.37 22.96 C43.22 22.36 44.11 21.8 45.03 21.28 C45.96 20.76 46.91 20.29 47.9 19.86 C48.9 19.42 49.92 19.04 50.98 18.7 C52.03 18.35 53.26 18.06 54.24 17.81 C55.22 17.57 55.95 17.38 56.84 17.22 C57.73 17.06 58.67 16.93 59.58 16.85 C60.48 16.78 61.38 16.74 62.27 16.75 C63.15 16.76 64.04 16.81 64.91 16.91 C65.77 17 66.63 17.14 67.48 17.33 C68.32 17.51 69.15 17.74 69.96 18.02 C70.77 18.29 71.57 18.61 72.35 18.97 C73.12 19.33 73.88 19.73 74.6 20.17 C75.33 20.62 76.04 21.11 76.71 21.63 C77.39 22.16 78.04 22.72 78.66 23.33 C79.28 23.93 79.87 24.57 80.42 25.24 C80.97 25.91 81.49 26.62 81.97 27.36 C82.46 28.1 82.91 28.87 83.32 29.67 C83.73 30.47 84.1 31.29 84.43 32.14 C84.77 32.99 85.06 33.87 85.32 34.77 C85.57 35.67 85.79 36.59 85.97 37.53 C86.14 38.47 86.28 39.44 86.37 40.41 C86.47 41.39 86.52 42.39 86.53 43.4 C86.54 44.42 86.51 45.45 86.44 46.49 C86.37 47.53 86.15 49.13 86.1 49.66" fill="none" stroke="#1c1c24" stroke-width="1.48" stroke-linecap="round"/>
    <path d="M28.34 82.26 C28.16 81.54 27.56 79.38 27.24 77.95 C26.92 76.52 26.65 75.1 26.4 73.7 C26.15 72.3 25.93 70.91 25.75 69.53 C25.56 68.15 25.41 66.79 25.28 65.44 C25.16 64.09 25.06 62.76 25 61.44 C24.94 60.12 24.9 58.82 24.9 57.53 C24.89 56.24 24.92 54.97 24.98 53.72 C25.04 52.46 25.13 51.22 25.26 50 C25.38 48.78 25.53 47.58 25.72 46.39 C25.91 45.21 26.14 44.04 26.4 42.89 C26.66 41.74 26.95 40.61 27.28 39.5 C27.61 38.39 27.98 37.3 28.39 36.23 C28.8 35.16 29.25 34.1 29.73 33.08 C30.22 32.05 30.75 31.05 31.33 30.07 C31.9 29.1 32.52 28.14 33.18 27.22 C33.84 26.3 34.55 25.4 35.3 24.55 C36.05 23.69 36.85 22.86 37.7 22.07 C38.54 21.29 39.43 20.53 40.36 19.83 C41.29 19.12 42.27 18.46 43.29 17.84 C44.31 17.23 45.37 16.65 46.46 16.13 C47.56 15.61 48.7 15.14 49.87 14.72 C51.03 14.3 52.41 13.93 53.48 13.62 C54.54 13.31 55.28 13.08 56.27 12.87 C57.25 12.65 58.35 12.46 59.4 12.34 C60.44 12.21 61.49 12.13 62.54 12.11 C63.58 12.08 64.63 12.11 65.67 12.19 C66.7 12.27 67.74 12.4 68.76 12.59 C69.79 12.78 70.8 13.03 71.8 13.33 C72.8 13.63 73.79 13.99 74.75 14.4 C75.71 14.81 76.66 15.28 77.58 15.8 C78.49 16.32 79.39 16.9 80.24 17.52 C81.1 18.15 81.93 18.83 82.71 19.55 C83.5 20.27 84.25 21.05 84.96 21.86 C85.67 22.67 86.34 23.53 86.96 24.42 C87.58 25.31 88.16 26.25 88.69 27.21 C89.22 28.17 89.71 29.17 90.14 30.19 C90.58 31.22 90.97 32.27 91.31 33.35 C91.65 34.42 91.94 35.52 92.18 36.64 C92.42 37.76 92.62 38.91 92.76 40.06 C92.91 41.22 93 43 93.05 43.59" fill="none" stroke="#1c1c24" stroke-width="1.85" stroke-linecap="round"/>
    <path d="M27.51 82.39 C27.29 81.67 26.56 79.51 26.16 78.08 C25.76 76.65 25.43 75.23 25.12 73.81 C24.8 72.4 24.53 70.99 24.28 69.6 C24.04 68.21 23.82 66.82 23.64 65.45 C23.46 64.08 23.31 62.72 23.19 61.37 C23.07 60.03 22.99 58.69 22.93 57.37 C22.88 56.05 22.86 54.74 22.87 53.44 C22.88 52.14 22.93 50.86 23.01 49.58 C23.09 48.31 23.2 47.05 23.36 45.81 C23.51 44.56 23.7 43.33 23.93 42.11 C24.16 40.89 24.42 39.69 24.74 38.5 C25.05 37.31 25.4 36.13 25.79 34.98 C26.19 33.82 26.63 32.68 27.12 31.55 C27.61 30.43 28.15 29.33 28.74 28.25 C29.33 27.17 29.97 26.11 30.66 25.08 C31.35 24.05 32.1 23.04 32.9 22.07 C33.7 21.1 34.56 20.16 35.47 19.27 C36.37 18.37 37.34 17.51 38.35 16.7 C39.36 15.89 40.43 15.12 41.54 14.4 C42.66 13.69 43.82 13.02 45.02 12.41 C46.22 11.8 47.47 11.25 48.76 10.75 C50.04 10.25 51.56 9.81 52.72 9.43 C53.87 9.06 54.61 8.79 55.69 8.52 C56.78 8.25 58.04 8 59.22 7.82 C60.41 7.65 61.61 7.52 62.81 7.47 C64.01 7.41 65.22 7.4 66.43 7.47 C67.63 7.54 68.85 7.66 70.05 7.86 C71.25 8.05 72.46 8.31 73.64 8.64 C74.82 8.97 76 9.37 77.16 9.83 C78.31 10.3 79.45 10.83 80.55 11.43 C81.65 12.02 82.73 12.69 83.77 13.42 C84.8 14.14 85.81 14.93 86.77 15.78 C87.72 16.62 88.64 17.53 89.5 18.48 C90.37 19.43 91.18 20.44 91.94 21.48 C92.7 22.53 93.41 23.62 94.07 24.75 C94.72 25.88 95.31 27.05 95.85 28.24 C96.39 29.44 96.87 30.67 97.3 31.92 C97.72 33.17 98.21 35.12 98.4 35.75" fill="none" stroke="#1c1c24" stroke-width="2.23" stroke-linecap="round"/>
    <path d="M26.68 82.52 C26.41 81.8 25.56 79.65 25.08 78.21 C24.61 76.78 24.22 75.35 23.84 73.92 C23.46 72.5 23.12 71.08 22.82 69.67 C22.51 68.26 22.24 66.86 22 65.47 C21.76 64.07 21.55 62.69 21.38 61.31 C21.21 59.94 21.07 58.57 20.97 57.21 C20.86 55.85 20.79 54.5 20.76 53.16 C20.72 51.82 20.72 50.49 20.76 49.16 C20.8 47.84 20.87 46.53 20.99 45.22 C21.11 43.92 21.26 42.62 21.46 41.33 C21.66 40.04 21.9 38.77 22.19 37.5 C22.48 36.23 22.81 34.97 23.2 33.73 C23.58 32.48 24.02 31.25 24.51 30.03 C25 28.81 25.54 27.61 26.15 26.42 C26.75 25.24 27.42 24.07 28.14 22.93 C28.87 21.8 29.65 20.68 30.5 19.6 C31.35 18.52 32.26 17.47 33.23 16.46 C34.21 15.46 35.25 14.48 36.34 13.57 C37.43 12.65 38.59 11.77 39.8 10.96 C41.01 10.15 42.27 9.39 43.58 8.69 C44.89 7.99 46.25 7.35 47.65 6.78 C49.04 6.2 50.71 5.68 51.95 5.24 C53.2 4.81 53.94 4.49 55.12 4.17 C56.3 3.84 57.72 3.53 59.05 3.3 C60.38 3.08 61.72 2.92 63.08 2.82 C64.43 2.73 65.81 2.7 67.19 2.75 C68.56 2.8 69.95 2.92 71.33 3.12 C72.72 3.32 74.11 3.6 75.48 3.95 C76.85 4.31 78.22 4.75 79.56 5.26 C80.9 5.78 82.23 6.38 83.52 7.05 C84.81 7.73 86.08 8.48 87.29 9.31 C88.51 10.13 89.69 11.04 90.82 12 C91.94 12.97 93.03 14 94.05 15.09 C95.06 16.18 96.03 17.34 96.93 18.54 C97.83 19.74 98.67 21 99.44 22.29 C100.21 23.58 101.21 25.62 101.56 26.29" fill="none" stroke="#1c1c24" stroke-width="2.6" stroke-linecap="round"/>
    <circle cx="30" cy="82" r="3.2" fill="#4750d4"/>
</svg>
