<svg width="100" height="100" viewBox="0 0 100 100" fill="none" xmlns="http://www.w3.org/2000/svg" role="img" aria-label="Bezier">
    <path d="M30 82 C29.9 81.28 29.57 79.11 29.4 77.69 C29.23 76.27 29.08 74.86 28.96 73.48 C28.84 72.1 28.75 70.73 28.68 69.39 C28.62 68.04 28.58 66.71 28.57 65.41 C28.56 64.11 28.57 62.82 28.62 61.56 C28.66 60.3 28.73 59.06 28.83 57.85 C28.93 56.63 29.05 55.44 29.21 54.27 C29.36 53.1 29.54 51.96 29.75 50.84 C29.96 49.72 30.2 48.63 30.46 47.57 C30.72 46.5 31.01 45.46 31.33 44.45 C31.65 43.44 32 42.45 32.38 41.5 C32.75 40.55 33.15 39.62 33.58 38.72 C34.01 37.83 34.47 36.96 34.96 36.13 C35.45 35.29 35.96 34.49 36.51 33.72 C37.05 32.95 37.62 32.21 38.22 31.51 C38.82 30.8 39.45 30.13 40.1 29.49 C40.76 28.86 41.44 28.25 42.16 27.69 C42.87 27.12 43.61 26.59 44.38 26.09 C45.15 25.6 45.95 25.14 46.78 24.72 C47.61 24.3 48.46 23.92 49.35 23.58 C50.23 23.24 51.14 22.93 52.09 22.67 C53.03 22.41 54.11 22.18 55 22 C55.89 21.82 56.62 21.68 57.42 21.57 C58.21 21.47 58.99 21.4 59.75 21.37 C60.51 21.34 61.26 21.35 62 21.39 C62.73 21.43 63.45 21.51 64.15 21.62 C64.84 21.74 65.53 21.88 66.19 22.06 C66.85 22.24 67.5 22.46 68.12 22.7 C68.75 22.95 69.36 23.23 69.94 23.53 C70.53 23.84 71.09 24.18 71.63 24.55 C72.17 24.92 72.69 25.31 73.19 25.74 C73.68 26.17 74.16 26.62 74.61 27.1 C75.05 27.58 75.48 28.09 75.88 28.63 C76.27 29.16 76.65 29.72 76.99 30.3 C77.33 30.89 77.65 31.5 77.94 32.13 C78.23 32.76 78.49 33.42 78.72 34.1 C78.96 34.77 79.16 35.47 79.33 36.2 C79.5 36.92 79.64 37.66 79.75 38.42 C79.86 39.18 79.94 39.96 79.98 40.76 C80.02 41.56 80.04 42.38 80.01 43.22 C79.99 44.05 79.93 44.91 79.84 45.78 C79.74 46.65 79.61 47.53 79.45 48.43 C79.28 49.33 79.08 50.25 78.84 51.17 C78.6 52.1 78.14 53.53 78 54" fill="none" stroke="#1c1c24" stroke-width="1.1" stroke-linecap="round"/>
    <path d="M28.58 82.22 C28.43 81.5 27.96 79.32 27.71 77.89 C27.45 76.46 27.24 75.05 27.05 73.64 C26.86 72.24 26.71 70.86 26.58 69.49 C26.45 68.12 26.35 66.77 26.27 65.43 C26.2 64.09 26.16 62.78 26.15 61.48 C26.13 60.18 26.15 58.9 26.19 57.63 C26.24 56.37 26.31 55.13 26.42 53.9 C26.52 52.68 26.66 51.48 26.82 50.3 C26.99 49.11 27.18 47.95 27.41 46.81 C27.64 45.67 27.89 44.55 28.18 43.46 C28.48 42.36 28.8 41.28 29.16 40.24 C29.51 39.19 29.9 38.16 30.33 37.16 C30.75 36.16 31.21 35.18 31.71 34.23 C32.2 33.28 32.73 32.36 33.3 31.46 C33.87 30.57 34.48 29.7 35.12 28.87 C35.76 28.04 36.45 27.23 37.17 26.47 C37.89 25.7 38.65 24.96 39.44 24.27 C40.24 23.58 41.07 22.92 41.95 22.3 C42.82 21.68 43.73 21.1 44.67 20.57 C45.62 20.04 46.6 19.55 47.61 19.11 C48.63 18.66 49.68 18.26 50.76 17.91 C51.84 17.56 53.1 17.26 54.09 17 C55.09 16.75 55.82 16.56 56.73 16.4 C57.64 16.23 58.61 16.1 59.54 16.02 C60.47 15.93 61.4 15.9 62.32 15.9 C63.23 15.91 64.14 15.96 65.04 16.06 C65.94 16.16 66.83 16.3 67.7 16.49 C68.58 16.68 69.44 16.92 70.28 17.2 C71.12 17.49 71.95 17.81 72.76 18.19 C73.56 18.56 74.35 18.98 75.1 19.44 C75.86 19.9 76.6 20.41 77.3 20.95 C78 21.5 78.68 22.09 79.32 22.71 C79.96 23.33 80.58 24 81.15 24.7 C81.72 25.39 82.27 26.13 82.77 26.89 C83.27 27.66 83.74 28.46 84.16 29.28 C84.59 30.11 84.97 30.96 85.32 31.84 C85.67 32.72 85.97 33.63 86.24 34.55 C86.5 35.48 86.73 36.43 86.91 37.4 C87.09 38.37 87.23 39.36 87.33 40.36 C87.43 41.37 87.49 42.39 87.5 43.43 C87.51 44.47 87.48 45.53 87.41 46.59 C87.34 47.66 87.22 48.74 87.06 49.84 C86.91 50.93 86.7 52.04 86.46 53.15 C86.21 54.27 85.73 55.97 85.59 56.53" fill="none" stroke="#1c1c24" stroke-width="1.48" stroke-linecap="round"/>
    <path d="M27.15 82.44 C26.97 81.72 26.35 79.54 26.02 78.1 C25.68 76.66 25.4 75.23 25.15 73.81 C24.89 72.39 24.66 70.98 24.47 69.59 C24.27 68.2 24.11 66.82 23.98 65.45 C23.85 64.08 23.74 62.73 23.67 61.39 C23.6 60.05 23.56 58.73 23.56 57.42 C23.55 56.11 23.57 54.82 23.63 53.54 C23.68 52.26 23.77 51 23.89 49.75 C24.01 48.5 24.17 47.27 24.36 46.06 C24.55 44.84 24.77 43.64 25.04 42.46 C25.3 41.28 25.6 40.12 25.94 38.97 C26.27 37.83 26.65 36.7 27.07 35.59 C27.49 34.48 27.95 33.4 28.45 32.33 C28.96 31.27 29.5 30.22 30.1 29.21 C30.69 28.19 31.33 27.2 32.02 26.24 C32.71 25.27 33.45 24.34 34.23 23.44 C35.01 22.54 35.85 21.68 36.73 20.85 C37.61 20.03 38.54 19.24 39.51 18.5 C40.48 17.77 41.51 17.07 42.57 16.42 C43.63 15.78 44.74 15.18 45.88 14.63 C47.03 14.09 48.21 13.59 49.43 13.16 C50.65 12.72 52.08 12.33 53.18 12.01 C54.29 11.68 55.03 11.45 56.05 11.22 C57.08 11 58.24 10.8 59.33 10.66 C60.43 10.53 61.54 10.44 62.64 10.41 C63.74 10.39 64.84 10.41 65.94 10.5 C67.03 10.58 68.13 10.72 69.22 10.92 C70.3 11.13 71.38 11.38 72.44 11.7 C73.5 12.02 74.55 12.4 75.57 12.84 C76.59 13.28 77.6 13.78 78.58 14.33 C79.55 14.88 80.5 15.5 81.41 16.16 C82.32 16.83 83.2 17.55 84.04 18.32 C84.87 19.09 85.67 19.91 86.43 20.77 C87.18 21.63 87.89 22.54 88.55 23.49 C89.21 24.43 89.82 25.42 90.38 26.44 C90.94 27.45 91.46 28.51 91.92 29.59 C92.38 30.67 92.79 31.78 93.15 32.91 C93.51 34.04 93.81 35.2 94.07 36.37 C94.32 37.55 94.53 38.75 94.68 39.96 C94.83 41.17 94.93 42.4 94.99 43.64 C95.04 44.88 95.04 46.14 94.98 47.41 C94.93 48.68 94.83 49.95 94.68 51.24 C94.53 52.53 94.33 53.83 94.08 55.13 C93.83 56.43 93.33 58.4 93.18 59.06" fill="none" stroke="#1c1c24" stroke-width="1.85" stroke-linecap="round"/>
    <path d="M25.73 82.67 C25.5 81.94 24.74 79.76 24.33 78.31 C23.91 76.86 23.57 75.41 23.24 73.97 C22.91 72.54 22.62 71.11 22.36 69.69 C22.1 68.27 21.88 66.87 21.68 65.47 C21.49 64.07 21.33 62.68 21.2 61.31 C21.07 59.93 20.98 58.56 20.92 57.21 C20.86 55.85 20.83 54.51 20.83 53.17 C20.84 51.84 20.88 50.51 20.96 49.2 C21.04 47.89 21.15 46.59 21.31 45.3 C21.46 44.01 21.65 42.73 21.89 41.47 C22.12 40.2 22.4 38.95 22.72 37.71 C23.04 36.47 23.4 35.24 23.81 34.02 C24.23 32.81 24.69 31.61 25.2 30.43 C25.71 29.25 26.28 28.09 26.9 26.95 C27.52 25.81 28.19 24.69 28.92 23.6 C29.66 22.51 30.44 21.44 31.29 20.42 C32.14 19.39 33.05 18.39 34.01 17.44 C34.98 16.49 36 15.57 37.08 14.71 C38.15 13.85 39.28 13.03 40.46 12.27 C41.64 11.51 42.88 10.81 44.15 10.16 C45.42 9.51 46.75 8.93 48.1 8.4 C49.45 7.87 51.06 7.4 52.27 7.01 C53.49 6.62 54.23 6.33 55.37 6.05 C56.51 5.76 57.86 5.49 59.13 5.31 C60.39 5.12 61.67 4.99 62.96 4.93 C64.24 4.87 65.54 4.86 66.83 4.94 C68.13 5.01 69.43 5.14 70.73 5.36 C72.02 5.57 73.32 5.85 74.6 6.2 C75.87 6.56 77.15 6.99 78.39 7.49 C79.63 8 80.86 8.57 82.05 9.22 C83.24 9.87 84.4 10.59 85.52 11.37 C86.64 12.16 87.72 13.01 88.75 13.93 C89.78 14.84 90.77 15.82 91.7 16.84 C92.63 17.87 93.51 18.95 94.32 20.08 C95.14 21.2 95.9 22.38 96.6 23.59 C97.3 24.8 97.94 26.05 98.51 27.33 C99.09 28.61 99.6 29.93 100.06 31.26 C100.51 32.6 100.9 33.97 101.23 35.35 C101.56 36.73 101.82 38.14 102.03 39.56 C102.24 40.97 102.38 42.41 102.47 43.85 C102.56 45.3 102.59 46.76 102.56 48.22 C102.53 49.69 102.44 51.17 102.3 52.65 C102.16 54.13 101.96 55.62 101.7 57.11 C101.45 58.6 100.92 60.84 100.77 61.59" fill="none" stroke="#1c1c24" stroke-width="2.23" stroke-linecap="round"/>
    <path d="M24.31 82.89 C24.03 82.16 23.13 79.97 22.64 78.51 C22.14 77.05 21.73 75.59 21.33 74.14 C20.93 72.69 20.58 71.24 20.26 69.79 C19.93 68.35 19.64 66.92 19.39 65.49 C19.14 64.06 18.92 62.64 18.73 61.22 C18.55 59.8 18.39 58.4 18.28 56.99 C18.17 55.59 18.09 54.19 18.04 52.8 C18 51.42 18 50.03 18.03 48.66 C18.07 47.28 18.14 45.91 18.26 44.55 C18.38 43.18 18.53 41.82 18.74 40.47 C18.95 39.12 19.19 37.78 19.5 36.44 C19.8 35.1 20.15 33.77 20.56 32.46 C20.97 31.14 21.42 29.83 21.95 28.53 C22.47 27.24 23.05 25.95 23.69 24.69 C24.34 23.43 25.05 22.18 25.82 20.96 C26.6 19.75 27.44 18.55 28.36 17.39 C29.27 16.23 30.25 15.1 31.3 14.02 C32.34 12.94 33.46 11.9 34.64 10.92 C35.82 9.93 37.06 8.99 38.36 8.12 C39.66 7.25 41.02 6.43 42.42 5.69 C43.82 4.94 45.28 4.26 46.77 3.64 C48.26 3.03 50.05 2.47 51.37 2.01 C52.68 1.55 53.43 1.22 54.68 0.87 C55.94 0.53 57.49 0.19 58.92 -0.05 C60.35 -0.29 61.81 -0.46 63.28 -0.56 C64.74 -0.66 66.24 -0.69 67.73 -0.63 C69.22 -0.57 70.74 -0.44 72.24 -0.21 C73.74 0.01 75.26 0.31 76.75 0.71 C78.25 1.1 79.74 1.58 81.2 2.15 C82.66 2.71 84.11 3.37 85.52 4.11 C86.92 4.85 88.31 5.68 89.63 6.59 C90.96 7.49 92.25 8.48 93.47 9.53 C94.69 10.59 95.87 11.72 96.98 12.91 C98.08 14.1 99.13 15.36 100.1 16.67 C101.08 17.97 101.99 19.34 102.82 20.74 C103.66 22.14 104.42 23.6 105.11 25.08 C105.8 26.56 106.42 28.08 106.96 29.62 C107.51 31.16 107.98 32.74 108.39 34.33 C108.79 35.91 109.12 37.53 109.38 39.15 C109.64 40.78 109.83 42.42 109.96 44.07 C110.08 45.71 110.14 47.38 110.13 49.04 C110.13 50.7 110.05 52.38 109.92 54.05 C109.78 55.73 109.58 57.41 109.32 59.08 C109.06 60.76 108.52 63.28 108.36 64.12" fill="none" stroke="#1c1c24" stroke-width="2.6" stroke-linecap="round"/>
    <circle cx="30" cy="82" r="3.2" fill="#4750d4"/>
</svg>
