<svg width="100" height="100" viewBox="0 0 100 100" fill="none" xmlns="http://www.w3.org/2000/svg" role="img" aria-label="Bezier">
    <path d="M30 82 C29.9 81.28 29.57 79.11 29.4 77.69 C29.23 76.27 29.08 74.86 28.96 73.48 C28.84 72.1 28.75 70.73 28.68 69.39 C28.62 68.04 28.58 66.71 28.57 65.41 C28.56 64.11 28.57 62.82 28.62 61.56 C28.66 60.3 28.73 59.06 28.83 57.85 C28.93 56.63 29.05 55.44 29.21 54.27 C29.36 53.1 29.54 51.96 29.75 50.84 C29.96 49.72 30.2 48.63 30.46 47.57 C30.72 46.5 31.01 45.46 31.33 44.45 C31.65 43.44 32 42.45 32.38 41.5 C32.75 40.55 33.15 39.62 33.58 38.72 C34.01 37.83 34.47 36.96 34.96 36.13 C35.45 35.29 35.96 34.49 36.51 33.72 C37.05 32.95 37.62 32.21 38.22 31.51 C38.82 30.8 39.45 30.13 40.1 29.49 C40.76 28.86 41.44 28.25 42.16 27.69 C42.87 27.12 43.61 26.59 44.38 26.09 C45.15 25.6 45.95 25.14 46.78 24.72 C47.61 24.3 48.46 23.92 49.35 23.58 C50.23 23.24 51.14 22.93 52.09 22.67 C53.03 22.41 54.11 22.18 55 22 C55.89 21.82 56.62 21.68 57.42 21.57 C58.21 21.47 58.99 21.4 59.75 21.37 C60.51 21.34 61.26 21.35 62 21.39 C62.73 21.43 63.45 21.51 64.15 21.62 C64.84 21.74 65.53 21.88 66.19 22.06 C66.85 22.24 67.5 22.46 68.12 22.7 C68.75 22.95 69.36 23.23 69.94 23.53 C70.53 23.84 71.09 24.18 71.63 24.55 C72.17 24.92 72.69 25.31 73.19 25.74 C73.68 26.17 74.16 26.62 74.61 27.1 C75.05 27.58 75.48 28.09 75.88 28.63 C76.27 29.16 76.65 29.72 76.99 30.3 C77.33 30.89 77.65 31.5 77.94 32.13 C78.23 32.76 78.49 33.42 78.72 34.1 C78.96 34.77 79.16 35.47 79.33 36.2 C79.5 36.92 79.64 37.66 79.75 38.42 C79.86 39.18 79.94 39.96 79.98 40.76 C80.02 41.56 80.04 42.38 80.01 43.22 C79.99 44.05 79.93 44.91 79.84 45.78 C79.74 46.65 79.61 47.53 79.45 48.43 C79.28 49.33 79.08 50.25 78.84 51.17 C78.6 52.1 78.14 53.53 78 54" fill="none" stroke="#1c1c24" stroke-width="3" stroke-linecap="round"/>
    <path d="M29.05 82.15 C28.9 81.43 28.42 79.26 28.17 77.84 C27.91 76.41 27.69 75 27.5 73.61 C27.3 72.21 27.14 70.83 27.01 69.47 C26.87 68.1 26.77 66.76 26.69 65.43 C26.61 64.1 26.57 62.78 26.55 61.49 C26.53 60.2 26.54 58.92 26.58 57.66 C26.62 56.41 26.69 55.17 26.79 53.95 C26.89 52.74 27.02 51.54 27.18 50.36 C27.34 49.19 27.53 48.03 27.75 46.9 C27.98 45.76 28.23 44.65 28.51 43.56 C28.8 42.47 29.11 41.4 29.46 40.36 C29.82 39.31 30.2 38.29 30.62 37.3 C31.03 36.3 31.49 35.33 31.97 34.39 C32.46 33.44 32.99 32.52 33.55 31.64 C34.11 30.75 34.7 29.89 35.34 29.06 C35.98 28.23 36.65 27.43 37.36 26.67 C38.07 25.9 38.82 25.17 39.61 24.48 C40.4 23.79 41.22 23.13 42.08 22.51 C42.95 21.9 43.85 21.32 44.78 20.79 C45.72 20.26 46.69 19.77 47.7 19.32 C48.7 18.88 49.75 18.48 50.82 18.13 C51.89 17.78 53.14 17.47 54.13 17.21 C55.12 16.96 55.86 16.77 56.76 16.6 C57.66 16.43 58.63 16.29 59.55 16.21 C60.47 16.12 61.39 16.08 62.31 16.09 C63.22 16.09 64.12 16.14 65.01 16.23 C65.91 16.33 66.79 16.47 67.66 16.65 C68.53 16.84 69.39 17.07 70.23 17.35 C71.06 17.62 71.89 17.95 72.69 18.31 C73.49 18.68 74.27 19.09 75.03 19.55 C75.78 20 76.52 20.51 77.22 21.05 C77.92 21.58 78.6 22.17 79.24 22.79 C79.88 23.41 80.49 24.07 81.07 24.76 C81.64 25.45 82.18 26.18 82.69 26.94 C83.19 27.7 83.66 28.5 84.08 29.32 C84.51 30.14 84.9 30.99 85.25 31.87 C85.6 32.74 85.91 33.64 86.17 34.57 C86.44 35.49 86.67 36.44 86.85 37.41 C87.04 38.37 87.18 39.36 87.28 40.36 C87.39 41.37 87.44 42.39 87.46 43.43 C87.48 44.47 87.45 45.52 87.38 46.59 C87.31 47.66 87.2 48.74 87.05 49.83 C86.89 50.93 86.69 52.03 86.45 53.15 C86.21 54.27 85.73 55.97 85.59 56.53" fill="none" stroke="#1c1c24" stroke-width="2.37" stroke-linecap="round"/>
    <path d="M28.1 82.3 C27.91 81.58 27.28 79.42 26.93 77.99 C26.59 76.56 26.3 75.14 26.03 73.73 C25.77 72.33 25.53 70.93 25.33 69.55 C25.13 68.17 24.96 66.8 24.81 65.44 C24.67 64.09 24.56 62.75 24.48 61.42 C24.4 60.09 24.35 58.78 24.34 57.48 C24.32 56.19 24.33 54.9 24.38 53.64 C24.42 52.37 24.5 51.12 24.61 49.88 C24.72 48.65 24.87 47.43 25.05 46.23 C25.23 45.02 25.44 43.84 25.69 42.67 C25.94 41.5 26.23 40.35 26.55 39.21 C26.88 38.08 27.24 36.96 27.65 35.87 C28.05 34.77 28.5 33.7 28.99 32.64 C29.48 31.59 30.01 30.56 30.59 29.55 C31.17 28.54 31.79 27.56 32.46 26.61 C33.13 25.66 33.85 24.73 34.62 23.84 C35.38 22.95 36.2 22.09 37.06 21.27 C37.92 20.45 38.83 19.67 39.79 18.93 C40.74 18.2 41.75 17.5 42.79 16.86 C43.83 16.21 44.93 15.62 46.05 15.07 C47.18 14.52 48.35 14.03 49.55 13.59 C50.75 13.15 52.17 12.75 53.26 12.43 C54.35 12.1 55.09 11.85 56.1 11.63 C57.12 11.4 58.26 11.19 59.35 11.05 C60.43 10.91 61.53 10.82 62.61 10.78 C63.7 10.75 64.8 10.76 65.88 10.84 C66.97 10.92 68.06 11.05 69.13 11.24 C70.2 11.43 71.28 11.68 72.33 11.99 C73.38 12.3 74.42 12.67 75.44 13.09 C76.45 13.52 77.46 14.01 78.43 14.55 C79.39 15.09 80.34 15.7 81.25 16.35 C82.16 17 83.04 17.72 83.87 18.47 C84.71 19.23 85.51 20.04 86.26 20.89 C87.01 21.74 87.72 22.65 88.38 23.58 C89.04 24.52 89.66 25.5 90.23 26.51 C90.79 27.52 91.31 28.56 91.77 29.64 C92.24 30.71 92.66 31.81 93.02 32.94 C93.38 34.06 93.7 35.22 93.96 36.39 C94.22 37.56 94.43 38.75 94.59 39.96 C94.75 41.17 94.85 42.4 94.91 43.64 C94.97 44.88 94.97 46.14 94.93 47.4 C94.88 48.67 94.79 49.95 94.65 51.23 C94.5 52.52 94.31 53.82 94.06 55.12 C93.82 56.43 93.33 58.4 93.18 59.06" fill="none" stroke="#1c1c24" stroke-width="1.73" stroke-linecap="round"/>
    <path d="M27.15 82.44 C26.91 81.73 26.13 79.57 25.7 78.14 C25.27 76.71 24.91 75.28 24.57 73.86 C24.23 72.44 23.93 71.03 23.65 69.63 C23.38 68.23 23.14 66.84 22.94 65.46 C22.73 64.08 22.56 62.71 22.42 61.35 C22.27 59.99 22.16 58.64 22.09 57.3 C22.01 55.96 21.97 54.64 21.96 53.32 C21.96 52 21.98 50.7 22.04 49.4 C22.11 48.11 22.21 46.83 22.34 45.56 C22.48 44.29 22.65 43.02 22.87 41.78 C23.09 40.53 23.34 39.29 23.64 38.07 C23.95 36.85 24.29 35.64 24.68 34.44 C25.07 33.25 25.51 32.06 26 30.9 C26.49 29.74 27.03 28.59 27.63 27.47 C28.23 26.34 28.87 25.23 29.58 24.16 C30.29 23.08 31.05 22.03 31.87 21.01 C32.69 20 33.57 19.01 34.51 18.06 C35.45 17.12 36.44 16.21 37.49 15.36 C38.54 14.5 39.64 13.68 40.8 12.93 C41.95 12.17 43.16 11.46 44.4 10.82 C45.65 10.17 46.95 9.58 48.28 9.05 C49.61 8.52 51.19 8.04 52.39 7.64 C53.58 7.24 54.32 6.94 55.45 6.65 C56.57 6.36 57.9 6.08 59.15 5.89 C60.39 5.69 61.66 5.55 62.92 5.48 C64.19 5.4 65.47 5.39 66.75 5.45 C68.03 5.51 69.32 5.63 70.6 5.83 C71.88 6.02 73.16 6.29 74.43 6.63 C75.69 6.97 76.95 7.39 78.19 7.87 C79.42 8.36 80.64 8.92 81.82 9.55 C83 10.18 84.17 10.89 85.28 11.66 C86.39 12.42 87.48 13.26 88.5 14.16 C89.53 15.05 90.52 16.02 91.45 17.03 C92.38 18.04 93.26 19.11 94.08 20.22 C94.9 21.33 95.67 22.5 96.37 23.69 C97.07 24.89 97.72 26.14 98.3 27.4 C98.88 28.67 99.4 29.98 99.86 31.31 C100.32 32.64 100.72 34 101.06 35.37 C101.4 36.75 101.67 38.15 101.89 39.56 C102.11 40.98 102.26 42.41 102.36 43.85 C102.46 45.29 102.49 46.75 102.48 48.22 C102.46 49.68 102.38 51.16 102.24 52.64 C102.11 54.12 101.92 55.61 101.67 57.1 C101.43 58.59 100.92 60.84 100.77 61.59" fill="none" stroke="#1c1c24" stroke-width="1.1" stroke-linecap="round"/>
    <circle cx="30" cy="82" r="3.2" fill="#4750d4"/>
</svg>
