<svg width="100" height="100" viewBox="0 0 100 100" fill="none" xmlns="http://www.w3.org/2000/svg" role="img" aria-label="Bezier">
    <path d="M30 80 C30.09 79.51 30.33 78.02 30.53 77.06 C30.73 76.1 30.96 75.17 31.2 74.25 C31.45 73.33 31.72 72.43 32.01 71.56 C32.3 70.68 32.61 69.82 32.95 68.99 C33.28 68.15 33.64 67.33 34.01 66.54 C34.39 65.74 34.79 64.97 35.2 64.21 C35.62 63.46 36.06 62.72 36.51 62.01 C36.97 61.29 37.45 60.59 37.95 59.92 C38.44 59.24 38.96 58.59 39.49 57.95 C40.02 57.31 40.58 56.7 41.15 56.1 C41.72 55.5 42.31 54.92 42.91 54.37 C43.52 53.81 44.14 53.27 44.78 52.75 C45.42 52.23 46.08 51.73 46.75 51.25 C47.42 50.77 48.11 50.31 48.82 49.87 C49.52 49.42 50.24 49 50.98 48.6 C51.71 48.19 52.47 47.81 53.23 47.44 C54 47.07 54.78 46.73 55.57 46.4 C56.37 46.07 57.17 45.76 58 45.47 C58.82 45.18 59.65 44.9 60.5 44.65 C61.35 44.39 62.21 44.16 63.08 43.94 C63.95 43.72 64.84 43.53 65.74 43.35 C66.63 43.17 67.54 43 68.46 42.86 C69.38 42.72 70.31 42.59 71.26 42.48 C72.2 42.37 73.15 42.29 74.11 42.21 C75.07 42.14 76.05 42.09 77.03 42.05 C78.01 42.02 79.5 42.01 80 42" fill="none" stroke="#1c1c24" stroke-width="1" opacity="0.45" stroke-linecap="round" opacity="1"/>
    <path d="M29.41 79.91 C29.45 79.4 29.55 77.87 29.66 76.88 C29.78 75.89 29.93 74.91 30.1 73.95 C30.28 72.99 30.48 72.05 30.7 71.12 C30.93 70.2 31.18 69.29 31.46 68.39 C31.73 67.5 32.04 66.62 32.36 65.76 C32.69 64.9 33.04 64.05 33.41 63.22 C33.79 62.4 34.19 61.58 34.61 60.79 C35.04 60 35.48 59.22 35.95 58.46 C36.43 57.7 36.92 56.95 37.44 56.23 C37.96 55.5 38.5 54.8 39.06 54.11 C39.62 53.42 40.21 52.75 40.82 52.09 C41.43 51.44 42.06 50.81 42.71 50.19 C43.36 49.58 44.03 48.98 44.72 48.41 C45.41 47.83 46.12 47.27 46.85 46.74 C47.59 46.2 48.34 45.68 49.11 45.18 C49.87 44.69 50.66 44.21 51.47 43.75 C52.27 43.29 53.09 42.86 53.93 42.44 C54.77 42.02 55.63 41.62 56.5 41.25 C57.37 40.87 58.26 40.51 59.16 40.17 C60.06 39.84 60.98 39.52 61.91 39.22 C62.84 38.92 63.78 38.65 64.74 38.39 C65.7 38.13 66.67 37.89 67.65 37.68 C68.64 37.46 69.63 37.26 70.64 37.08 C71.65 36.9 72.66 36.74 73.69 36.6 C74.72 36.47 75.77 36.35 76.82 36.24 C77.87 36.14 79.47 36.04 80 36" fill="none" stroke="#1c1c24" stroke-width="1" opacity="0.45" stroke-linecap="round" opacity="1"/>
    <path d="M28.81 79.82 C28.81 79.3 28.76 77.72 28.79 76.7 C28.83 75.67 28.91 74.66 29.01 73.66 C29.11 72.66 29.24 71.67 29.4 70.69 C29.56 69.71 29.75 68.75 29.97 67.8 C30.19 66.85 30.44 65.91 30.71 64.98 C30.99 64.05 31.29 63.14 31.63 62.24 C31.96 61.34 32.32 60.45 32.71 59.57 C33.1 58.7 33.52 57.84 33.96 57 C34.41 56.15 34.88 55.32 35.39 54.51 C35.89 53.69 36.42 52.89 36.97 52.11 C37.53 51.33 38.11 50.57 38.72 49.82 C39.33 49.08 39.97 48.35 40.63 47.64 C41.29 46.93 41.98 46.24 42.69 45.56 C43.4 44.89 44.13 44.24 44.89 43.61 C45.65 42.98 46.43 42.36 47.23 41.77 C48.03 41.18 48.86 40.61 49.7 40.06 C50.55 39.51 51.41 38.99 52.29 38.48 C53.18 37.97 54.08 37.49 55 37.02 C55.92 36.56 56.86 36.12 57.82 35.7 C58.77 35.28 59.75 34.88 60.73 34.5 C61.72 34.12 62.73 33.77 63.74 33.43 C64.76 33.1 65.8 32.78 66.84 32.49 C67.89 32.2 68.95 31.93 70.02 31.68 C71.09 31.43 72.18 31.2 73.28 31 C74.38 30.79 75.49 30.6 76.61 30.44 C77.73 30.27 79.43 30.07 80 30" fill="none" stroke="#1c1c24" stroke-width="1" opacity="0.45" stroke-linecap="round" opacity="1"/>
    <path d="M30 80 C30.09 79.51 30.33 78.02 30.53 77.06 C30.73 76.1 30.96 75.17 31.2 74.25 C31.45 73.33 31.72 72.43 32.01 71.56 C32.3 70.68 32.61 69.82 32.95 68.99 C33.28 68.15 33.64 67.33 34.01 66.54 C34.39 65.74 34.79 64.97 35.2 64.21 C35.62 63.46 36.06 62.72 36.51 62.01 C36.97 61.29 37.45 60.59 37.95 59.92 C38.44 59.24 38.96 58.59 39.49 57.95 C40.02 57.31 40.58 56.7 41.15 56.1 C41.72 55.5 42.31 54.92 42.91 54.37 C43.52 53.81 44.14 53.27 44.78 52.75 C45.42 52.23 46.08 51.73 46.75 51.25 C47.42 50.77 48.11 50.31 48.82 49.87 C49.52 49.42 50.24 49 50.98 48.6 C51.71 48.19 52.47 47.81 53.23 47.44 C54 47.07 54.78 46.73 55.57 46.4 C56.37 46.07 57.17 45.76 58 45.47 C58.82 45.18 59.65 44.9 60.5 44.65 C61.35 44.39 62.21 44.16 63.08 43.94 C63.95 43.72 64.84 43.53 65.74 43.35 C66.63 43.17 67.54 43 68.46 42.86 C69.38 42.72 70.31 42.59 71.26 42.48 C72.2 42.37 73.15 42.29 74.11 42.21 C75.07 42.14 76.05 42.09 77.03 42.05 C78.01 42.02 79.5 42.01 80 42" fill="none" stroke="#1c1c24" stroke-width="3.4" stroke-linecap="round" opacity="1"/>
    <circle cx="30" cy="80" r="3.4" fill="#4750d4"/>
</svg>
