<svg width="100" height="100" viewBox="0 0 100 100" fill="none" xmlns="http://www.w3.org/2000/svg" role="img" aria-label="Bezier">
    <path d="M30 80 C30.09 79.51 30.33 78.02 30.53 77.06 C30.73 76.1 30.96 75.17 31.2 74.25 C31.45 73.33 31.72 72.43 32.01 71.56 C32.3 70.68 32.61 69.82 32.95 68.99 C33.28 68.15 33.64 67.33 34.01 66.54 C34.39 65.74 34.79 64.97 35.2 64.21 C35.62 63.46 36.06 62.72 36.51 62.01 C36.97 61.29 37.45 60.59 37.95 59.92 C38.44 59.24 38.96 58.59 39.49 57.95 C40.02 57.31 40.58 56.7 41.15 56.1 C41.72 55.5 42.31 54.92 42.91 54.37 C43.52 53.81 44.14 53.27 44.78 52.75 C45.42 52.23 46.08 51.73 46.75 51.25 C47.42 50.77 48.11 50.31 48.82 49.87 C49.52 49.42 50.24 49 50.98 48.6 C51.71 48.19 52.47 47.81 53.23 47.44 C54 47.07 54.78 46.73 55.57 46.4 C56.37 46.07 57.17 45.76 58 45.47 C58.82 45.18 59.65 44.9 60.5 44.65 C61.35 44.39 62.21 44.16 63.08 43.94 C63.95 43.72 64.84 43.53 65.74 43.35 C66.63 43.17 67.54 43 68.46 42.86 C69.38 42.72 70.31 42.59 71.26 42.48 C72.2 42.37 73.15 42.29 74.11 42.21 C75.07 42.14 76.05 42.09 77.03 42.05 C78.01 42.02 79.5 42.01 80 42" fill="none" stroke="#1c1c24" stroke-width="3" stroke-linecap="round" opacity="1"/>
    <path d="M29.36 79.9 C29.4 79.4 29.48 77.86 29.59 76.87 C29.7 75.87 29.85 74.89 30.01 73.93 C30.18 72.97 30.38 72.02 30.6 71.09 C30.82 70.16 31.06 69.24 31.33 68.34 C31.61 67.44 31.9 66.56 32.22 65.69 C32.55 64.83 32.89 63.98 33.27 63.14 C33.64 62.31 34.03 61.49 34.45 60.69 C34.87 59.89 35.32 59.1 35.79 58.34 C36.26 57.57 36.75 56.82 37.27 56.08 C37.78 55.35 38.32 54.64 38.89 53.94 C39.45 53.24 40.04 52.56 40.64 51.9 C41.25 51.24 41.88 50.6 42.53 49.98 C43.18 49.36 43.86 48.75 44.55 48.17 C45.24 47.59 45.96 47.02 46.69 46.48 C47.42 45.93 48.18 45.41 48.95 44.9 C49.72 44.39 50.51 43.91 51.32 43.44 C52.13 42.98 52.95 42.53 53.8 42.11 C54.64 41.68 55.5 41.28 56.37 40.89 C57.25 40.51 58.14 40.14 59.05 39.8 C59.95 39.46 60.87 39.13 61.81 38.83 C62.74 38.52 63.69 38.24 64.66 37.98 C65.62 37.71 66.6 37.47 67.58 37.24 C68.57 37.02 69.57 36.82 70.59 36.63 C71.6 36.45 72.62 36.28 73.66 36.14 C74.7 35.99 75.74 35.87 76.8 35.76 C77.86 35.65 79.47 35.54 80 35.5" fill="none" stroke="#1c1c24" stroke-width="2.55" stroke-linecap="round" opacity="1"/>
    <path d="M28.72 79.8 C28.7 79.28 28.63 77.7 28.65 76.67 C28.67 75.64 28.73 74.62 28.82 73.61 C28.91 72.6 29.03 71.6 29.18 70.62 C29.33 69.63 29.51 68.66 29.72 67.7 C29.93 66.74 30.17 65.79 30.44 64.85 C30.71 63.91 31 62.98 31.33 62.07 C31.65 61.16 32.01 60.26 32.39 59.37 C32.78 58.48 33.19 57.61 33.63 56.75 C34.07 55.89 34.55 55.05 35.04 54.22 C35.54 53.39 36.07 52.58 36.63 51.78 C37.18 50.99 37.77 50.2 38.37 49.44 C38.98 48.68 39.62 47.94 40.28 47.21 C40.95 46.49 41.64 45.78 42.35 45.09 C43.06 44.4 43.8 43.73 44.56 43.09 C45.33 42.44 46.11 41.81 46.92 41.21 C47.73 40.6 48.56 40.01 49.41 39.45 C50.26 38.88 51.13 38.34 52.02 37.82 C52.91 37.3 53.82 36.8 54.75 36.32 C55.68 35.84 56.63 35.39 57.59 34.95 C58.56 34.52 59.54 34.1 60.54 33.71 C61.54 33.32 62.55 32.95 63.58 32.61 C64.61 32.26 65.65 31.93 66.71 31.63 C67.76 31.32 68.84 31.04 69.92 30.78 C71 30.52 72.1 30.28 73.21 30.06 C74.32 29.84 75.44 29.64 76.57 29.47 C77.7 29.29 79.43 29.08 80 29" fill="none" stroke="#1c1c24" stroke-width="2.1" stroke-linecap="round" opacity="1"/>
    <path d="M28.07 79.7 C28.01 79.16 27.78 77.54 27.71 76.47 C27.64 75.4 27.62 74.34 27.63 73.29 C27.64 72.24 27.69 71.19 27.77 70.15 C27.85 69.11 27.97 68.08 28.11 67.06 C28.26 66.03 28.44 65.01 28.65 64 C28.86 63 29.11 61.99 29.39 61 C29.67 60.01 29.98 59.03 30.33 58.05 C30.68 57.08 31.06 56.12 31.48 55.17 C31.89 54.22 32.34 53.28 32.82 52.36 C33.3 51.43 33.82 50.52 34.37 49.62 C34.91 48.73 35.49 47.85 36.11 46.98 C36.72 46.12 37.36 45.27 38.04 44.44 C38.71 43.61 39.42 42.8 40.15 42.01 C40.88 41.22 41.65 40.45 42.44 39.7 C43.23 38.95 44.05 38.22 44.89 37.51 C45.73 36.8 46.6 36.12 47.5 35.45 C48.39 34.79 49.31 34.15 50.25 33.53 C51.19 32.91 52.15 32.32 53.13 31.75 C54.11 31.18 55.12 30.63 56.14 30.1 C57.16 29.58 58.21 29.08 59.27 28.6 C60.33 28.12 61.4 27.67 62.5 27.24 C63.59 26.81 64.7 26.4 65.83 26.01 C66.95 25.63 68.1 25.27 69.25 24.93 C70.41 24.59 71.58 24.28 72.76 23.98 C73.94 23.69 75.14 23.42 76.34 23.17 C77.55 22.93 79.39 22.61 80 22.5" fill="none" stroke="#1c1c24" stroke-width="1.65" stroke-linecap="round" opacity="1"/>
    <path d="M27.43 79.6 C27.32 79.05 26.93 77.38 26.77 76.27 C26.6 75.17 26.51 74.07 26.44 72.97 C26.38 71.87 26.35 70.78 26.36 69.68 C26.37 68.59 26.42 67.5 26.5 66.41 C26.58 65.32 26.71 64.24 26.86 63.16 C27.02 62.08 27.22 61 27.45 59.93 C27.69 58.86 27.96 57.79 28.27 56.74 C28.58 55.68 28.93 54.63 29.32 53.59 C29.71 52.55 30.13 51.51 30.6 50.49 C31.06 49.47 31.57 48.46 32.11 47.46 C32.65 46.47 33.22 45.49 33.84 44.52 C34.45 43.55 35.1 42.6 35.79 41.67 C36.47 40.74 37.2 39.82 37.95 38.93 C38.7 38.04 39.49 37.16 40.31 36.31 C41.13 35.46 41.98 34.62 42.86 33.82 C43.74 33.01 44.65 32.22 45.58 31.46 C46.52 30.7 47.48 29.96 48.47 29.24 C49.46 28.53 50.47 27.84 51.51 27.18 C52.55 26.51 53.61 25.87 54.69 25.26 C55.77 24.64 56.87 24.05 57.99 23.49 C59.12 22.92 60.26 22.38 61.42 21.87 C62.58 21.35 63.76 20.86 64.95 20.4 C66.14 19.93 67.36 19.49 68.58 19.08 C69.81 18.66 71.05 18.27 72.31 17.91 C73.56 17.54 74.83 17.2 76.11 16.88 C77.4 16.56 79.35 16.15 80 16" fill="none" stroke="#1c1c24" stroke-width="1.2" stroke-linecap="round" opacity="1"/>
    <circle cx="30" cy="80" r="3.2" fill="#4750d4"/>
</svg>
