<svg width="100" height="100" viewBox="0 0 100 100" fill="none" xmlns="http://www.w3.org/2000/svg" role="img" aria-label="Bezier">
    <path d="M30 80 C30.09 79.51 30.33 78.02 30.53 77.06 C30.73 76.1 30.96 75.17 31.2 74.25 C31.45 73.33 31.72 72.43 32.01 71.56 C32.3 70.68 32.61 69.82 32.95 68.99 C33.28 68.15 33.64 67.33 34.01 66.54 C34.39 65.74 34.79 64.97 35.2 64.21 C35.62 63.46 36.06 62.72 36.51 62.01 C36.97 61.29 37.45 60.59 37.95 59.92 C38.44 59.24 38.96 58.59 39.49 57.95 C40.02 57.31 40.58 56.7 41.15 56.1 C41.72 55.5 42.31 54.92 42.91 54.37 C43.52 53.81 44.14 53.27 44.78 52.75 C45.42 52.23 46.08 51.73 46.75 51.25 C47.42 50.77 48.11 50.31 48.82 49.87 C49.52 49.42 50.24 49 50.98 48.6 C51.71 48.19 52.47 47.81 53.23 47.44 C54 47.07 54.78 46.73 55.57 46.4 C56.37 46.07 57.17 45.76 58 45.47 C58.82 45.18 59.65 44.9 60.5 44.65 C61.35 44.39 62.21 44.16 63.08 43.94 C63.95 43.72 64.84 43.53 65.74 43.35 C66.63 43.17 67.54 43 68.46 42.86 C69.38 42.72 70.31 42.59 71.26 42.48 C72.2 42.37 73.15 42.29 74.11 42.21 C75.07 42.14 76.05 42.09 77.03 42.05 C78.01 42.02 79.5 42.01 80 42" fill="none" stroke="#1c1c24" stroke-width="1.2" stroke-linecap="round" opacity="1"/>
    <path d="M29.31 79.89 C29.34 79.39 29.42 77.85 29.52 76.85 C29.62 75.85 29.76 74.87 29.92 73.9 C30.08 72.94 30.27 71.99 30.49 71.05 C30.7 70.12 30.94 69.2 31.21 68.29 C31.48 67.39 31.77 66.5 32.09 65.63 C32.4 64.76 32.75 63.9 33.12 63.06 C33.48 62.22 33.88 61.39 34.3 60.59 C34.71 59.78 35.16 58.99 35.62 58.21 C36.09 57.44 36.58 56.68 37.1 55.94 C37.61 55.2 38.15 54.48 38.71 53.77 C39.27 53.07 39.86 52.38 40.47 51.72 C41.08 51.05 41.71 50.4 42.36 49.77 C43.01 49.14 43.69 48.53 44.38 47.93 C45.08 47.34 45.79 46.77 46.53 46.22 C47.26 45.66 48.02 45.13 48.79 44.62 C49.57 44.1 50.36 43.61 51.17 43.14 C51.98 42.66 52.81 42.21 53.66 41.78 C54.51 41.35 55.37 40.93 56.25 40.54 C57.13 40.15 58.02 39.78 58.94 39.43 C59.85 39.08 60.77 38.75 61.71 38.43 C62.65 38.12 63.61 37.83 64.57 37.56 C65.54 37.29 66.52 37.04 67.52 36.81 C68.51 36.58 69.52 36.37 70.54 36.18 C71.55 35.99 73.11 35.76 73.63 35.67" fill="none" stroke="#1c1c24" stroke-width="1.55" stroke-linecap="round" opacity="1"/>
    <path d="M28.62 79.79 C28.6 79.26 28.5 77.68 28.5 76.64 C28.51 75.6 28.56 74.58 28.64 73.56 C28.72 72.55 28.83 71.54 28.97 70.55 C29.11 69.55 29.28 68.57 29.48 67.6 C29.67 66.63 29.9 65.67 30.16 64.72 C30.42 63.77 30.71 62.83 31.03 61.91 C31.35 60.98 31.7 60.07 32.08 59.17 C32.45 58.27 32.86 57.38 33.3 56.51 C33.74 55.64 34.21 54.78 34.7 53.93 C35.2 53.09 35.72 52.26 36.28 51.45 C36.83 50.64 37.42 49.84 38.03 49.06 C38.64 48.29 39.27 47.53 39.94 46.78 C40.6 46.04 41.3 45.32 42.01 44.62 C42.73 43.91 43.47 43.23 44.24 42.57 C45 41.9 45.79 41.26 46.61 40.64 C47.42 40.02 48.26 39.41 49.11 38.83 C49.97 38.25 50.85 37.7 51.75 37.16 C52.65 36.62 53.57 36.11 54.5 35.62 C55.44 35.13 56.4 34.65 57.37 34.21 C58.34 33.76 59.34 33.33 60.34 32.93 C61.35 32.52 62.37 32.14 63.41 31.78 C64.45 31.42 65.5 31.08 66.57 30.77 C67.64 30.45 69.28 30.03 69.82 29.88" fill="none" stroke="#1c1c24" stroke-width="1.9" stroke-linecap="round" opacity="1"/>
    <path d="M27.92 79.68 C27.85 79.14 27.59 77.5 27.49 76.43 C27.4 75.35 27.37 74.28 27.36 73.22 C27.35 72.15 27.38 71.09 27.45 70.04 C27.51 68.99 27.61 67.95 27.74 66.91 C27.87 65.87 28.04 64.83 28.24 63.81 C28.44 62.78 28.67 61.76 28.94 60.75 C29.21 59.74 29.52 58.74 29.86 57.75 C30.2 56.76 30.57 55.77 30.98 54.8 C31.39 53.83 31.83 52.87 32.31 51.93 C32.79 50.98 33.3 50.04 33.84 49.12 C34.39 48.21 34.97 47.3 35.58 46.41 C36.2 45.53 36.84 44.65 37.52 43.8 C38.19 42.95 38.9 42.11 39.64 41.3 C40.38 40.49 41.15 39.69 41.95 38.92 C42.74 38.14 43.57 37.39 44.42 36.66 C45.27 35.93 46.15 35.22 47.05 34.53 C47.96 33.85 48.89 33.18 49.84 32.54 C50.79 31.9 51.76 31.29 52.76 30.69 C53.75 30.1 54.77 29.53 55.81 28.99 C56.84 28.44 57.9 27.92 58.97 27.42 C60.05 26.92 61.14 26.45 62.25 26 C63.36 25.55 65.06 24.93 65.63 24.72" fill="none" stroke="#1c1c24" stroke-width="2.25" stroke-linecap="round" opacity="1"/>
    <path d="M27.23 79.57 C27.11 79.01 26.67 77.33 26.48 76.21 C26.28 75.1 26.17 73.98 26.08 72.87 C25.99 71.76 25.94 70.65 25.93 69.54 C25.91 68.43 25.94 67.32 26 66.21 C26.07 65.11 26.17 64 26.31 62.9 C26.46 61.8 26.64 60.7 26.86 59.6 C27.08 58.51 27.34 57.42 27.64 56.33 C27.94 55.25 28.28 54.17 28.66 53.1 C29.03 52.03 29.45 50.97 29.91 49.92 C30.37 48.87 30.87 47.83 31.41 46.8 C31.95 45.77 32.53 44.76 33.14 43.76 C33.75 42.77 34.41 41.78 35.1 40.82 C35.79 39.86 36.51 38.91 37.27 37.98 C38.03 37.06 38.83 36.15 39.66 35.27 C40.48 34.38 41.34 33.52 42.23 32.68 C43.12 31.84 44.05 31.02 45 30.23 C45.94 29.44 46.92 28.67 47.92 27.92 C48.93 27.18 49.96 26.46 51.01 25.77 C52.06 25.08 53.14 24.41 54.24 23.76 C55.34 23.12 56.46 22.5 57.6 21.91 C58.74 21.32 60.51 20.5 61.09 20.22" fill="none" stroke="#1c1c24" stroke-width="2.6" stroke-linecap="round" opacity="1"/>
    <circle cx="30" cy="80" r="3.2" fill="#4750d4"/>
</svg>
