<svg width="100" height="100" viewBox="0 0 100 100" fill="none" xmlns="http://www.w3.org/2000/svg" role="img" aria-label="Bezier">
    <path d="M30 80 C30.09 79.51 30.33 78.02 30.53 77.06 C30.73 76.1 30.96 75.17 31.2 74.25 C31.45 73.33 31.72 72.43 32.01 71.56 C32.3 70.68 32.61 69.82 32.95 68.99 C33.28 68.15 33.64 67.33 34.01 66.54 C34.39 65.74 34.79 64.97 35.2 64.21 C35.62 63.46 36.06 62.72 36.51 62.01 C36.97 61.29 37.45 60.59 37.95 59.92 C38.44 59.24 38.96 58.59 39.49 57.95 C40.02 57.31 40.58 56.7 41.15 56.1 C41.72 55.5 42.31 54.92 42.91 54.37 C43.52 53.81 44.14 53.27 44.78 52.75 C45.42 52.23 46.08 51.73 46.75 51.25 C47.42 50.77 48.11 50.31 48.82 49.87 C49.52 49.42 50.24 49 50.98 48.6 C51.71 48.19 52.47 47.81 53.23 47.44 C54 47.07 54.78 46.73 55.57 46.4 C56.37 46.07 57.17 45.76 58 45.47 C58.82 45.18 59.65 44.9 60.5 44.65 C61.35 44.39 62.21 44.16 63.08 43.94 C63.95 43.72 64.84 43.53 65.74 43.35 C66.63 43.17 67.54 43 68.46 42.86 C69.38 42.72 70.31 42.59 71.26 42.48 C72.2 42.37 73.15 42.29 74.11 42.21 C75.07 42.14 76.05 42.09 77.03 42.05 C78.01 42.02 79.5 42.01 80 42" fill="none" stroke="#1c1c24" stroke-width="1.2" stroke-linecap="round" opacity="1"/>
    <path d="M28.22 79.73 C28.25 79.21 28.3 77.64 28.39 76.61 C28.49 75.59 28.62 74.59 28.77 73.6 C28.93 72.6 29.11 71.63 29.32 70.67 C29.53 69.7 29.77 68.76 30.03 67.82 C30.3 66.89 30.59 65.97 30.91 65.07 C31.23 64.17 31.57 63.28 31.94 62.41 C32.31 61.54 32.71 60.68 33.14 59.85 C33.56 59.01 34.01 58.18 34.48 57.38 C34.96 56.57 35.46 55.78 35.99 55.01 C36.51 54.24 37.07 53.49 37.64 52.75 C38.22 52.02 38.82 51.3 39.44 50.6 C40.07 49.9 40.71 49.22 41.38 48.56 C42.05 47.91 42.75 47.27 43.46 46.65 C44.18 46.03 44.91 45.43 45.67 44.85 C46.42 44.27 47.2 43.71 48 43.17 C48.8 42.63 49.61 42.12 50.45 41.62 C51.28 41.12 52.13 40.65 53 40.19 C53.87 39.74 54.76 39.31 55.67 38.9 C56.57 38.48 57.49 38.09 58.42 37.72 C59.36 37.35 60.31 37.01 61.27 36.68 C62.24 36.35 63.22 36.04 64.21 35.76 C65.2 35.47 66.21 35.21 67.23 34.96 C68.25 34.72 69.28 34.49 70.32 34.29 C71.36 34.08 72.42 33.9 73.48 33.74 C74.55 33.57 75.62 33.43 76.71 33.31 C77.8 33.19 79.45 33.05 80 33" fill="none" stroke="#1c1c24" stroke-width="1.67" stroke-linecap="round" opacity="1"/>
    <path d="M26.44 79.45 C26.41 78.91 26.27 77.25 26.26 76.17 C26.24 75.08 26.28 74.01 26.34 72.94 C26.41 71.88 26.5 70.82 26.63 69.77 C26.76 68.73 26.93 67.69 27.12 66.66 C27.32 65.63 27.54 64.61 27.81 63.6 C28.07 62.6 28.36 61.6 28.68 60.61 C29.01 59.62 29.37 58.65 29.76 57.69 C30.15 56.72 30.57 55.77 31.02 54.84 C31.48 53.9 31.97 52.98 32.49 52.07 C33 51.17 33.56 50.28 34.14 49.4 C34.72 48.53 35.33 47.67 35.97 46.84 C36.61 46 37.29 45.18 37.99 44.38 C38.69 43.58 39.42 42.8 40.17 42.04 C40.93 41.28 41.71 40.54 42.52 39.83 C43.33 39.11 44.16 38.42 45.02 37.75 C45.88 37.08 46.76 36.43 47.66 35.8 C48.56 35.18 49.49 34.57 50.44 33.99 C51.38 33.41 52.35 32.86 53.34 32.33 C54.32 31.79 55.33 31.28 56.35 30.8 C57.37 30.31 58.41 29.85 59.47 29.41 C60.52 28.97 61.6 28.56 62.69 28.17 C63.77 27.78 64.88 27.41 65.99 27.06 C67.11 26.72 68.24 26.39 69.38 26.09 C70.53 25.79 71.68 25.52 72.85 25.26 C74.02 25.01 75.2 24.77 76.39 24.56 C77.58 24.35 79.4 24.09 80 24" fill="none" stroke="#1c1c24" stroke-width="2.13" stroke-linecap="round" opacity="1"/>
    <path d="M24.66 79.18 C24.57 78.6 24.25 76.87 24.12 75.72 C24 74.57 23.94 73.43 23.91 72.29 C23.88 71.15 23.9 70.02 23.95 68.88 C24 67.75 24.08 66.62 24.21 65.5 C24.34 64.37 24.5 63.25 24.7 62.14 C24.9 61.02 25.14 59.91 25.42 58.81 C25.7 57.71 26.02 56.61 26.38 55.53 C26.73 54.44 27.13 53.36 27.56 52.3 C28 51.23 28.47 50.18 28.98 49.14 C29.49 48.1 30.04 47.07 30.63 46.06 C31.22 45.05 31.84 44.05 32.5 43.07 C33.16 42.09 33.86 41.13 34.59 40.19 C35.32 39.25 36.09 38.33 36.88 37.44 C37.68 36.54 38.51 35.66 39.37 34.81 C40.23 33.96 41.12 33.13 42.04 32.32 C42.96 31.52 43.9 30.74 44.88 29.98 C45.85 29.23 46.85 28.5 47.87 27.79 C48.89 27.09 49.94 26.41 51.01 25.75 C52.07 25.1 53.16 24.47 54.27 23.87 C55.38 23.27 56.51 22.7 57.66 22.15 C58.81 21.6 59.98 21.08 61.16 20.58 C62.34 20.08 63.54 19.61 64.76 19.16 C65.97 18.72 67.2 18.29 68.45 17.9 C69.69 17.5 70.95 17.13 72.22 16.79 C73.49 16.44 74.78 16.12 76.08 15.82 C77.37 15.52 79.35 15.14 80 15" fill="none" stroke="#1c1c24" stroke-width="2.6" stroke-linecap="round" opacity="1"/>
    <circle cx="30" cy="80" r="3.2" fill="#4750d4"/>
</svg>
