<svg width="100" height="100" viewBox="0 0 100 100" fill="none" xmlns="http://www.w3.org/2000/svg" role="img" aria-label="Bezier">
    <path d="M30 80 C30.09 79.51 30.33 78.02 30.53 77.06 C30.73 76.1 30.96 75.17 31.2 74.25 C31.45 73.33 31.72 72.43 32.01 71.56 C32.3 70.68 32.61 69.82 32.95 68.99 C33.28 68.15 33.64 67.33 34.01 66.54 C34.39 65.74 34.79 64.97 35.2 64.21 C35.62 63.46 36.06 62.72 36.51 62.01 C36.97 61.29 37.45 60.59 37.95 59.92 C38.44 59.24 38.96 58.59 39.49 57.95 C40.02 57.31 40.58 56.7 41.15 56.1 C41.72 55.5 42.31 54.92 42.91 54.37 C43.52 53.81 44.14 53.27 44.78 52.75 C45.42 52.23 46.08 51.73 46.75 51.25 C47.42 50.77 48.11 50.31 48.82 49.87 C49.52 49.42 50.24 49 50.98 48.6 C51.71 48.19 52.47 47.81 53.23 47.44 C54 47.07 54.78 46.73 55.57 46.4 C56.37 46.07 57.17 45.76 58 45.47 C58.82 45.18 59.65 44.9 60.5 44.65 C61.35 44.39 62.21 44.16 63.08 43.94 C63.95 43.72 64.84 43.53 65.74 43.35 C66.63 43.17 67.54 43 68.46 42.86 C69.38 42.72 70.31 42.59 71.26 42.48 C72.2 42.37 73.15 42.29 74.11 42.21 C75.07 42.14 76.05 42.09 77.03 42.05 C78.01 42.02 79.5 42.01 80 42" fill="none" stroke="#1c1c24" stroke-width="1.2" stroke-linecap="round" opacity="1"/>
    <path d="M29.26 79.89 C29.29 79.38 29.35 77.84 29.45 76.83 C29.54 75.83 29.67 74.85 29.83 73.88 C29.99 72.91 30.17 71.96 30.38 71.02 C30.59 70.08 30.82 69.15 31.09 68.24 C31.35 67.34 31.64 66.44 31.95 65.56 C32.26 64.69 32.6 63.82 32.97 62.98 C33.33 62.13 33.72 61.3 34.14 60.49 C34.55 59.67 34.99 58.87 35.46 58.09 C35.92 57.31 36.41 56.55 36.93 55.8 C37.44 55.05 37.98 54.32 38.54 53.61 C39.1 52.9 39.69 52.2 40.29 51.53 C40.9 50.85 41.53 50.19 42.19 49.55 C42.84 48.92 43.52 48.3 44.21 47.7 C44.91 47.1 45.63 46.52 46.36 45.95 C47.1 45.39 47.86 44.85 48.64 44.33 C49.41 43.81 50.21 43.31 51.03 42.83 C51.84 42.35 52.67 41.89 53.52 41.45 C54.37 41.01 55.24 40.59 56.12 40.19 C57.01 39.79 57.91 39.41 58.82 39.05 C59.74 38.7 60.67 38.36 61.61 38.04 C62.56 37.72 63.52 37.43 64.49 37.15 C65.46 36.87 66.45 36.62 67.45 36.38 C68.45 36.14 69.46 35.93 70.48 35.73 C71.51 35.54 72.54 35.36 73.59 35.2 C74.64 35.05 75.7 34.91 76.76 34.79 C77.83 34.68 79.46 34.55 80 34.5" fill="none" stroke="#1c1c24" stroke-width="1.67" stroke-linecap="round" opacity="1"/>
    <path d="M28.52 79.77 C28.49 79.24 28.37 77.65 28.36 76.61 C28.35 75.56 28.39 74.53 28.46 73.51 C28.52 72.49 28.62 71.48 28.75 70.48 C28.88 69.47 29.04 68.48 29.23 67.5 C29.42 66.52 29.64 65.55 29.89 64.59 C30.14 63.63 30.42 62.68 30.73 61.74 C31.04 60.81 31.39 59.88 31.76 58.97 C32.13 58.05 32.54 57.15 32.97 56.27 C33.4 55.38 33.87 54.5 34.36 53.65 C34.85 52.79 35.38 51.94 35.93 51.12 C36.48 50.29 37.07 49.48 37.68 48.69 C38.29 47.89 38.93 47.12 39.59 46.36 C40.26 45.6 40.95 44.86 41.67 44.14 C42.39 43.42 43.14 42.72 43.91 42.04 C44.68 41.37 45.48 40.71 46.29 40.07 C47.11 39.43 47.96 38.81 48.82 38.22 C49.68 37.63 50.57 37.05 51.48 36.5 C52.38 35.95 53.31 35.42 54.25 34.91 C55.2 34.41 56.16 33.92 57.15 33.46 C58.13 33 59.13 32.56 60.15 32.14 C61.16 31.72 62.2 31.33 63.25 30.95 C64.29 30.58 65.36 30.23 66.44 29.9 C67.51 29.57 68.61 29.27 69.71 28.98 C70.82 28.7 71.94 28.43 73.07 28.19 C74.2 27.95 75.35 27.73 76.5 27.53 C77.66 27.33 79.42 27.09 80 27" fill="none" stroke="#1c1c24" stroke-width="2.13" stroke-linecap="round" opacity="1"/>
    <path d="M27.78 79.66 C27.69 79.11 27.39 77.47 27.27 76.38 C27.16 75.29 27.11 74.22 27.09 73.14 C27.06 72.07 27.07 71 27.12 69.94 C27.17 68.87 27.25 67.81 27.37 66.76 C27.49 65.7 27.64 64.66 27.83 63.61 C28.01 62.57 28.24 61.54 28.5 60.51 C28.76 59.48 29.05 58.46 29.38 57.45 C29.71 56.43 30.08 55.43 30.48 54.44 C30.88 53.45 31.32 52.46 31.79 51.5 C32.27 50.53 32.78 49.57 33.32 48.63 C33.87 47.69 34.45 46.76 35.06 45.85 C35.67 44.93 36.32 44.04 37 43.16 C37.68 42.29 38.39 41.43 39.13 40.59 C39.88 39.75 40.65 38.93 41.46 38.13 C42.26 37.34 43.09 36.56 43.95 35.81 C44.81 35.05 45.7 34.32 46.61 33.61 C47.53 32.9 48.47 32.22 49.43 31.55 C50.39 30.89 51.38 30.25 52.38 29.64 C53.39 29.02 54.42 28.43 55.47 27.87 C56.52 27.3 57.59 26.76 58.68 26.24 C59.77 25.72 60.88 25.23 62 24.76 C63.12 24.29 64.27 23.84 65.42 23.42 C66.58 23 67.75 22.6 68.94 22.23 C70.13 21.86 71.33 21.51 72.55 21.18 C73.76 20.85 75 20.55 76.24 20.27 C77.48 19.99 79.37 19.63 80 19.5" fill="none" stroke="#1c1c24" stroke-width="2.6" stroke-linecap="round" opacity="1"/>
    <circle cx="30" cy="80" r="3.2" fill="#4750d4"/>
</svg>
