<svg width="100" height="100" viewBox="0 0 100 100" fill="none" xmlns="http://www.w3.org/2000/svg" role="img" aria-label="Bezier">
    <path d="M30 80 C30.09 79.51 30.33 78.02 30.53 77.06 C30.73 76.1 30.96 75.17 31.2 74.25 C31.45 73.33 31.72 72.43 32.01 71.56 C32.3 70.68 32.61 69.82 32.95 68.99 C33.28 68.15 33.64 67.33 34.01 66.54 C34.39 65.74 34.79 64.97 35.2 64.21 C35.62 63.46 36.06 62.72 36.51 62.01 C36.97 61.29 37.45 60.59 37.95 59.92 C38.44 59.24 38.96 58.59 39.49 57.95 C40.02 57.31 40.58 56.7 41.15 56.1 C41.72 55.5 42.31 54.92 42.91 54.37 C43.52 53.81 44.14 53.27 44.78 52.75 C45.42 52.23 46.08 51.73 46.75 51.25 C47.42 50.77 48.11 50.31 48.82 49.87 C49.52 49.42 50.24 49 50.98 48.6 C51.71 48.19 52.47 47.81 53.23 47.44 C54 47.07 54.78 46.73 55.57 46.4 C56.37 46.07 57.17 45.76 58 45.47 C58.82 45.18 59.65 44.9 60.5 44.65 C61.35 44.39 62.21 44.16 63.08 43.94 C63.95 43.72 64.84 43.53 65.74 43.35 C66.63 43.17 67.54 43 68.46 42.86 C69.38 42.72 70.31 42.59 71.26 42.48 C72.2 42.37 73.15 42.29 74.11 42.21 C75.07 42.14 76.05 42.09 77.03 42.05 C78.01 42.02 79.5 42.01 80 42" fill="none" stroke="#1c1c24" stroke-width="1.2" stroke-linecap="round" opacity="1"/>
    <path d="M29.11 79.86 C29.13 79.35 29.15 77.8 29.23 76.79 C29.3 75.78 29.42 74.79 29.56 73.81 C29.69 72.83 29.86 71.86 30.05 70.91 C30.25 69.96 30.47 69.02 30.71 68.1 C30.96 67.17 31.24 66.26 31.54 65.37 C31.84 64.47 32.17 63.59 32.52 62.73 C32.87 61.87 33.25 61.02 33.66 60.18 C34.07 59.35 34.5 58.53 34.96 57.73 C35.42 56.92 35.9 56.14 36.41 55.37 C36.92 54.6 37.46 53.85 38.02 53.11 C38.58 52.38 39.16 51.66 39.77 50.96 C40.38 50.26 41.01 49.58 41.67 48.92 C42.32 48.25 43 47.61 43.7 46.99 C44.4 46.36 45.13 45.76 45.87 45.17 C46.62 44.59 47.38 44.02 48.17 43.48 C48.95 42.94 49.76 42.41 50.58 41.91 C51.41 41.4 52.25 40.92 53.11 40.46 C53.97 40 54.85 39.56 55.75 39.14 C56.65 38.71 57.56 38.31 58.49 37.94 C59.42 37.56 60.36 37.2 61.32 36.86 C62.28 36.52 63.25 36.21 64.24 35.91 C65.23 35.61 66.23 35.34 67.25 35.08 C68.26 34.83 69.29 34.6 70.33 34.38 C71.37 34.17 72.42 33.97 73.49 33.8 C74.55 33.63 75.63 33.47 76.71 33.34 C77.8 33.21 79.45 33.06 80 33" fill="none" stroke="#1c1c24" stroke-width="1.9" stroke-linecap="round" opacity="1"/>
    <path d="M28.22 79.73 C28.17 79.19 27.98 77.58 27.93 76.52 C27.87 75.46 27.88 74.41 27.91 73.36 C27.94 72.32 28 71.29 28.1 70.26 C28.19 69.23 28.32 68.21 28.48 67.2 C28.64 66.19 28.84 65.19 29.06 64.2 C29.29 63.21 29.55 62.22 29.84 61.25 C30.13 60.28 30.45 59.31 30.81 58.36 C31.16 57.41 31.55 56.46 31.97 55.53 C32.39 54.61 32.85 53.69 33.33 52.79 C33.82 51.88 34.34 50.99 34.89 50.12 C35.44 49.25 36.02 48.39 36.63 47.55 C37.24 46.71 37.88 45.88 38.56 45.08 C39.23 44.28 39.93 43.49 40.66 42.72 C41.39 41.95 42.14 41.21 42.93 40.48 C43.71 39.75 44.52 39.05 45.36 38.36 C46.19 37.68 47.05 37.02 47.94 36.38 C48.82 35.74 49.73 35.12 50.66 34.52 C51.58 33.93 52.54 33.35 53.51 32.8 C54.48 32.25 55.47 31.73 56.48 31.22 C57.49 30.72 58.51 30.24 59.56 29.78 C60.6 29.32 61.67 28.89 62.75 28.48 C63.83 28.06 64.92 27.68 66.03 27.31 C67.14 26.94 68.27 26.6 69.4 26.28 C70.54 25.96 71.7 25.66 72.86 25.39 C74.03 25.11 75.21 24.86 76.39 24.63 C77.58 24.4 79.4 24.1 80 24" fill="none" stroke="#1c1c24" stroke-width="2.6" stroke-linecap="round" opacity="1"/>
    <circle cx="30" cy="80" r="3.2" fill="#4750d4"/>
</svg>
