<svg width="100" height="100" viewBox="0 0 100 100" fill="none" xmlns="http://www.w3.org/2000/svg" role="img" aria-label="Bezier">
    <path d="M34 78 C43.27 49.47 9.1 45.59 16.36 16.48" fill="none" stroke="#1c1c24" stroke-width="1" stroke-linecap="round" opacity="0.86"/>
    <path d="M34 78 C43.27 49.47 17.9 39.9 32.14 13.5" fill="none" stroke="#1c1c24" stroke-width="1.38" stroke-linecap="round" opacity="0.9"/>
    <path d="M34 78 C43.27 49.47 29.03 27.99 48.98 5.59" fill="none" stroke="#1c1c24" stroke-width="1.73" stroke-linecap="round" opacity="0.93"/>
    <path d="M34 78 C43.27 49.47 43.24 20.18 67.49 2.51" fill="none" stroke="#1c1c24" stroke-width="1.74" stroke-linecap="round" opacity="0.93"/>
    <path d="M34 78 C43.27 49.47 55.86 20.48 83.03 7.76" fill="none" stroke="#1c1c24" stroke-width="1.45" stroke-linecap="round" opacity="0.91"/>
    <path d="M34 78 C43.27 49.47 60.38 29.71 89.28 21.67" fill="none" stroke="#1c1c24" stroke-width="1.2" stroke-linecap="round" opacity="0.88"/>
    <path d="M34 78 C43.27 49.47 62.29 36.86 92 32.69" fill="none" stroke="#1c1c24" stroke-width="1" stroke-linecap="round" opacity="0.86"/>
    <line x1="34" y1="78" x2="36.47" y2="70.39" stroke="#4750d4" stroke-width="1.3" stroke-linecap="round"/>
    <circle cx="34" cy="78" r="2.6" fill="#4750d4"/>
</svg>
