<svg width="100" height="100" viewBox="0 0 100 100" fill="none" xmlns="http://www.w3.org/2000/svg" role="img" aria-label="Bezier">
    <path d="M34 78 C43.27 49.47 9.01 46.68 14.22 17.13" fill="none" stroke="#1c1c24" stroke-width="0.75" stroke-linecap="round" opacity="0.86"/>
    <path d="M34 78 C43.27 49.47 14.2 41.95 24.08 13.62" fill="none" stroke="#1c1c24" stroke-width="0.94" stroke-linecap="round" opacity="0.88"/>
    <path d="M34 78 C43.27 49.47 20 34.4 34.13 7.94" fill="none" stroke="#1c1c24" stroke-width="1.13" stroke-linecap="round" opacity="0.91"/>
    <path d="M34 78 C43.27 49.47 27.28 28.16 45.16 4.07" fill="none" stroke="#1c1c24" stroke-width="1.3" stroke-linecap="round" opacity="0.93"/>
    <path d="M34 78 C43.27 49.47 35.62 23.42 56.7 2.07" fill="none" stroke="#1c1c24" stroke-width="1.47" stroke-linecap="round" opacity="0.95"/>
    <path d="M34 78 C43.27 49.47 44.59 20.25 68.32 1.9" fill="none" stroke="#1c1c24" stroke-width="1.37" stroke-linecap="round" opacity="0.93"/>
    <path d="M34 78 C43.27 49.47 50.16 24.53 75.99 9.27" fill="none" stroke="#1c1c24" stroke-width="1.22" stroke-linecap="round" opacity="0.92"/>
    <path d="M34 78 C43.27 49.47 53.97 29.67 81.39 17.5" fill="none" stroke="#1c1c24" stroke-width="1.08" stroke-linecap="round" opacity="0.9"/>
    <path d="M34 78 C43.27 49.47 56.62 34.47 85.17 25.27" fill="none" stroke="#1c1c24" stroke-width="0.96" stroke-linecap="round" opacity="0.89"/>
    <path d="M34 78 C43.27 49.47 58.33 38.73 87.62 32.26" fill="none" stroke="#1c1c24" stroke-width="0.84" stroke-linecap="round" opacity="0.87"/>
    <path d="M34 78 C43.27 49.47 59.31 42.21 89.01 38.03" fill="none" stroke="#1c1c24" stroke-width="0.75" stroke-linecap="round" opacity="0.86"/>
    <line x1="34" y1="78" x2="36.47" y2="70.39" stroke="#4750d4" stroke-width="1.3" stroke-linecap="round"/>
    <circle cx="34" cy="78" r="2.6" fill="#4750d4"/>
</svg>
