<svg width="100" height="100" viewBox="0 0 100 100" fill="none" xmlns="http://www.w3.org/2000/svg" role="img" aria-label="Bezier">
    <path d="M34 78 C43.27 49.47 10.12 45.82 16.36 16.48" fill="none" stroke="#1c1c24" stroke-width="0.85" stroke-linecap="round" opacity="0.86"/>
    <path d="M34 78 C43.27 49.47 16.4 39.53 28.05 11.88" fill="none" stroke="#1c1c24" stroke-width="1.12" stroke-linecap="round" opacity="0.89"/>
    <path d="M34 78 C43.27 49.47 24.1 30.97 40.51 5.85" fill="none" stroke="#1c1c24" stroke-width="1.38" stroke-linecap="round" opacity="0.92"/>
    <path d="M34 78 C43.27 49.47 33.63 24.45 54.04 2.46" fill="none" stroke="#1c1c24" stroke-width="1.62" stroke-linecap="round" opacity="0.94"/>
    <path d="M34 78 C43.27 49.47 44.24 20.19 67.85 1.69" fill="none" stroke="#1c1c24" stroke-width="1.55" stroke-linecap="round" opacity="0.93"/>
    <path d="M34 78 C43.27 49.47 50.47 25.59 76.52 10.72" fill="none" stroke="#1c1c24" stroke-width="1.34" stroke-linecap="round" opacity="0.91"/>
    <path d="M34 78 C43.27 49.47 54.38 31.65 82.18 20.36" fill="none" stroke="#1c1c24" stroke-width="1.15" stroke-linecap="round" opacity="0.89"/>
    <path d="M34 78 C43.27 49.47 56.78 37.04 85.7 29.06" fill="none" stroke="#1c1c24" stroke-width="0.99" stroke-linecap="round" opacity="0.88"/>
    <path d="M34 78 C43.27 49.47 58.04 41.34 87.58 36.14" fill="none" stroke="#1c1c24" stroke-width="0.85" stroke-linecap="round" opacity="0.86"/>
    <line x1="34" y1="78" x2="36.47" y2="70.39" stroke="#4750d4" stroke-width="1.3" stroke-linecap="round"/>
    <circle cx="34" cy="78" r="2.6" fill="#4750d4"/>
</svg>
