<svg width="100" height="100" viewBox="0 0 100 100" fill="none" xmlns="http://www.w3.org/2000/svg" role="img" aria-label="Bezier">
    <path d="M34 78 C43.27 49.47 11.26 45.01 18.52 15.9" fill="none" stroke="#1c1c24" stroke-width="1" stroke-linecap="round" opacity="0.86"/>
    <path d="M34 78 C43.27 49.47 19.56 36.17 33.41 9.56" fill="none" stroke="#1c1c24" stroke-width="1.38" stroke-linecap="round" opacity="0.9"/>
    <path d="M34 78 C43.27 49.47 30.63 26.36 49.94 3.4" fill="none" stroke="#1c1c24" stroke-width="1.73" stroke-linecap="round" opacity="0.93"/>
    <path d="M34 78 C43.27 49.47 43.89 20.13 67.39 1.48" fill="none" stroke="#1c1c24" stroke-width="1.74" stroke-linecap="round" opacity="0.93"/>
    <path d="M34 78 C43.27 49.47 51.09 27.36 77.56 13.24" fill="none" stroke="#1c1c24" stroke-width="1.45" stroke-linecap="round" opacity="0.91"/>
    <path d="M34 78 C43.27 49.47 54.96 34.76 83.31 24.94" fill="none" stroke="#1c1c24" stroke-width="1.2" stroke-linecap="round" opacity="0.88"/>
    <path d="M34 78 C43.27 49.47 56.75 40.53 86.09 34.29" fill="none" stroke="#1c1c24" stroke-width="1" stroke-linecap="round" opacity="0.86"/>
    <line x1="34" y1="78" x2="36.47" y2="70.39" stroke="#4750d4" stroke-width="1.3" stroke-linecap="round"/>
    <circle cx="34" cy="78" r="2.6" fill="#4750d4"/>
</svg>
