<svg width="100" height="100" viewBox="0 0 100 100" fill="none" xmlns="http://www.w3.org/2000/svg" role="img" aria-label="Bezier">
    <path d="M34 78 C43.27 49.47 16.65 44.32 22.89 14.97" fill="none" stroke="#1c1c24" stroke-width="0.95" stroke-linecap="round" opacity="0.86"/>
    <path d="M34 78 C43.27 49.47 22.89 38.51 34.21 10.73" fill="none" stroke="#1c1c24" stroke-width="1.26" stroke-linecap="round" opacity="0.89"/>
    <path d="M34 78 C43.27 49.47 30.77 30.47 46.56 4.96" fill="none" stroke="#1c1c24" stroke-width="1.55" stroke-linecap="round" opacity="0.92"/>
    <path d="M34 78 C43.27 49.47 40.22 24.51 59.78 1.75" fill="none" stroke="#1c1c24" stroke-width="1.78" stroke-linecap="round" opacity="0.95"/>
    <path d="M34 78 C43.27 49.47 48.33 24.91 70.93 5.18" fill="none" stroke="#1c1c24" stroke-width="1.53" stroke-linecap="round" opacity="0.92"/>
    <path d="M34 78 C43.27 49.47 52.08 31.58 77.04 14.94" fill="none" stroke="#1c1c24" stroke-width="1.3" stroke-linecap="round" opacity="0.9"/>
    <path d="M34 78 C43.27 49.47 54.18 37.42 80.86 23.71" fill="none" stroke="#1c1c24" stroke-width="1.11" stroke-linecap="round" opacity="0.88"/>
    <path d="M34 78 C43.27 49.47 55.1 42 82.92 30.76" fill="none" stroke="#1c1c24" stroke-width="0.95" stroke-linecap="round" opacity="0.86"/>
    <line x1="34" y1="78" x2="36.47" y2="70.39" stroke="#4750d4" stroke-width="1.3" stroke-linecap="round"/>
    <circle cx="34" cy="78" r="2.6" fill="#4750d4"/>
</svg>
