<svg width="100" height="100" viewBox="0 0 100 100" fill="none" xmlns="http://www.w3.org/2000/svg" role="img" aria-label="Bezier">
    <path d="M34 78 C43.27 49.47 6.1 44.67 16.36 16.48" fill="none" stroke="#1c1c24" stroke-width="0.85" stroke-linecap="round" opacity="0.86"/>
    <path d="M34 78 C43.27 49.47 12.73 38.43 28.12 12.68" fill="none" stroke="#1c1c24" stroke-width="1.12" stroke-linecap="round" opacity="0.89"/>
    <path d="M34 78 C43.27 49.47 20.69 29.23 40.44 6.65" fill="none" stroke="#1c1c24" stroke-width="1.38" stroke-linecap="round" opacity="0.92"/>
    <path d="M34 78 C43.27 49.47 30.57 22.17 53.83 3.23" fill="none" stroke="#1c1c24" stroke-width="1.62" stroke-linecap="round" opacity="0.94"/>
    <path d="M34 78 C43.27 49.47 41.57 17.45 67.53 2.42" fill="none" stroke="#1c1c24" stroke-width="1.55" stroke-linecap="round" opacity="0.93"/>
    <path d="M34 78 C43.27 49.47 49.08 21.14 76.95 10.05" fill="none" stroke="#1c1c24" stroke-width="1.34" stroke-linecap="round" opacity="0.91"/>
    <path d="M34 78 C43.27 49.47 53.6 27.06 82.69 19.75" fill="none" stroke="#1c1c24" stroke-width="1.15" stroke-linecap="round" opacity="0.89"/>
    <path d="M34 78 C43.27 49.47 56.54 32.39 86.29 28.51" fill="none" stroke="#1c1c24" stroke-width="0.99" stroke-linecap="round" opacity="0.88"/>
    <path d="M34 78 C43.27 49.47 58.23 36.69 88.22 35.64" fill="none" stroke="#1c1c24" stroke-width="0.85" stroke-linecap="round" opacity="0.86"/>
    <line x1="34" y1="78" x2="36.47" y2="70.39" stroke="#4750d4" stroke-width="1.3" stroke-linecap="round"/>
    <circle cx="34" cy="78" r="2.6" fill="#4750d4"/>
</svg>
