<svg width="100" height="100" viewBox="0 0 100 100" fill="none" xmlns="http://www.w3.org/2000/svg" role="img" aria-label="Bezier">
    <path d="M34 74 C36.78 58.24 9.2 50.41 -16.23 45" fill="none" stroke="#1c1c24" stroke-width="1.3" stroke-linecap="round" opacity="0.45"/>
    <path d="M34 74 C36.78 58.24 9.38 50.26 -16 44.65" fill="none" stroke="#1c1c24" stroke-width="1.3" stroke-linecap="round" opacity="0.45"/>
    <path d="M34 74 C36.78 58.24 9.66 50.03 -15.62 44.09" fill="none" stroke="#1c1c24" stroke-width="1.31" stroke-linecap="round" opacity="0.45"/>
    <path d="M34 74 C36.78 58.24 10.13 49.66 -14.99 43.2" fill="none" stroke="#1c1c24" stroke-width="1.31" stroke-linecap="round" opacity="0.46"/>
    <path d="M34 74 C36.78 58.24 10.89 49.08 -13.94 41.78" fill="none" stroke="#1c1c24" stroke-width="1.32" stroke-linecap="round" opacity="0.46"/>
    <path d="M34 74 C36.78 58.24 12.15 48.19 -12.16 39.56" fill="none" stroke="#1c1c24" stroke-width="1.34" stroke-linecap="round" opacity="0.48"/>
    <path d="M34 74 C36.78 58.24 14.26 46.88 -9.06 36.17" fill="none" stroke="#1c1c24" stroke-width="1.37" stroke-linecap="round" opacity="0.49"/>
    <path d="M34 74 C36.78 58.24 17.8 45.12 -3.54 31.28" fill="none" stroke="#1c1c24" stroke-width="1.41" stroke-linecap="round" opacity="0.52"/>
    <path d="M34 74 C36.78 58.24 23.78 43.21 6.48 25.06" fill="none" stroke="#1c1c24" stroke-width="1.49" stroke-linecap="round" opacity="0.57"/>
    <path d="M34 74 C36.78 58.24 33.61 42.58 24.46 19.86" fill="none" stroke="#1c1c24" stroke-width="1.6" stroke-linecap="round" opacity="0.64"/>
    <path d="M34 74 C36.78 58.24 47.93 47.48 53.3 24.56" fill="none" stroke="#1c1c24" stroke-width="1.61" stroke-linecap="round" opacity="0.76"/>
    <path d="M34 74 C36.78 58.24 60.88 66.07 81.55 58.55" fill="none" stroke="#1c1c24" stroke-width="1.3" stroke-linecap="round" opacity="0.95"/>
</svg>
