<svg width="100" height="100" viewBox="0 0 100 100" fill="none" xmlns="http://www.w3.org/2000/svg" role="img" aria-label="Bezier">
    <path d="M40 78 C41.57 60.07 19.03 46.6 -5.96 39.43" fill="none" stroke="#1c1c24" stroke-width="1.14" stroke-linecap="round" opacity="0.45"/>
    <path d="M40 78 C41.57 60.07 19.13 46.55 -5.83 39.29" fill="none" stroke="#1c1c24" stroke-width="1.14" stroke-linecap="round" opacity="0.45"/>
    <path d="M40 78 C41.57 60.07 19.29 46.46 -5.61 39.05" fill="none" stroke="#1c1c24" stroke-width="1.14" stroke-linecap="round" opacity="0.45"/>
    <path d="M40 78 C41.57 60.07 19.55 46.33 -5.26 38.67" fill="none" stroke="#1c1c24" stroke-width="1.15" stroke-linecap="round" opacity="0.46"/>
    <path d="M40 78 C41.57 60.07 19.96 46.11 -4.68 38.07" fill="none" stroke="#1c1c24" stroke-width="1.15" stroke-linecap="round" opacity="0.46"/>
    <path d="M40 78 C41.57 60.07 20.65 45.78 -3.73 37.1" fill="none" stroke="#1c1c24" stroke-width="1.16" stroke-linecap="round" opacity="0.47"/>
    <path d="M40 78 C41.57 60.07 21.76 45.26 -2.15 35.6" fill="none" stroke="#1c1c24" stroke-width="1.18" stroke-linecap="round" opacity="0.48"/>
    <path d="M40 78 C41.57 60.07 23.58 44.51 0.52 33.28" fill="none" stroke="#1c1c24" stroke-width="1.2" stroke-linecap="round" opacity="0.49"/>
    <path d="M40 78 C41.57 60.07 26.59 43.5 5.1 29.9" fill="none" stroke="#1c1c24" stroke-width="1.24" stroke-linecap="round" opacity="0.52"/>
    <path d="M40 78 C41.57 60.07 31.53 42.4 13.09 25.42" fill="none" stroke="#1c1c24" stroke-width="1.31" stroke-linecap="round" opacity="0.57"/>
    <path d="M40 78 C41.57 60.07 39.58 42.02 27.09 20.96" fill="none" stroke="#1c1c24" stroke-width="1.41" stroke-linecap="round" opacity="0.64"/>
    <path d="M40 78 C41.57 60.07 51.95 44.91 50.44 21.42" fill="none" stroke="#1c1c24" stroke-width="1.42" stroke-linecap="round" opacity="0.76"/>
    <path d="M40 78 C41.57 60.07 67.47 57.38 81.62 40.53" fill="none" stroke="#1c1c24" stroke-width="1.14" stroke-linecap="round" opacity="0.95"/>
    <line x1="40" y1="78" x2="40.78" y2="69.03" stroke="#4750d4" stroke-width="1.4" stroke-linecap="round"/>
    <circle cx="40" cy="78" r="2.6" fill="#4750d4"/>
</svg>
