<svg width="100" height="100" viewBox="0 0 100 100" fill="none" xmlns="http://www.w3.org/2000/svg" role="img" aria-label="Bezier">
    <path d="M30 80 C34.33 66.69 -1.55 58.59 -27.49 56.77" fill="none" stroke="#1c1c24" stroke-width="1.2" stroke-linecap="round" opacity="0.45"/>
    <path d="M30 80 C34.33 66.69 -1.48 58.51 -27.4 56.6" fill="none" stroke="#1c1c24" stroke-width="1.2" stroke-linecap="round" opacity="0.45"/>
    <path d="M30 80 C34.33 66.69 -1.36 58.38 -27.27 56.32" fill="none" stroke="#1c1c24" stroke-width="1.2" stroke-linecap="round" opacity="0.45"/>
    <path d="M30 80 C34.33 66.69 -1.17 58.17 -27.04 55.87" fill="none" stroke="#1c1c24" stroke-width="1.2" stroke-linecap="round" opacity="0.45"/>
    <path d="M30 80 C34.33 66.69 -0.86 57.83 -26.67 55.14" fill="none" stroke="#1c1c24" stroke-width="1.21" stroke-linecap="round" opacity="0.46"/>
    <path d="M30 80 C34.33 66.69 -0.35 57.3 -26.06 53.97" fill="none" stroke="#1c1c24" stroke-width="1.22" stroke-linecap="round" opacity="0.46"/>
    <path d="M30 80 C34.33 66.69 0.5 56.45 -25.01 52.11" fill="none" stroke="#1c1c24" stroke-width="1.23" stroke-linecap="round" opacity="0.47"/>
    <path d="M30 80 C34.33 66.69 1.9 55.16 -23.18 49.19" fill="none" stroke="#1c1c24" stroke-width="1.24" stroke-linecap="round" opacity="0.48"/>
    <path d="M30 80 C34.33 66.69 4.29 53.23 -19.9 44.72" fill="none" stroke="#1c1c24" stroke-width="1.27" stroke-linecap="round" opacity="0.49"/>
    <path d="M30 80 C34.33 66.69 8.39 50.57 -13.83 38.21" fill="none" stroke="#1c1c24" stroke-width="1.32" stroke-linecap="round" opacity="0.52"/>
    <path d="M30 80 C34.33 66.69 15.45 47.53 -2.32 29.86" fill="none" stroke="#1c1c24" stroke-width="1.39" stroke-linecap="round" opacity="0.57"/>
    <path d="M30 80 C34.33 66.69 27.28 45.89 19.01 22.85" fill="none" stroke="#1c1c24" stroke-width="1.5" stroke-linecap="round" opacity="0.64"/>
    <path d="M30 80 C34.33 66.69 44.65 51.14 53.24 29.24" fill="none" stroke="#1c1c24" stroke-width="1.51" stroke-linecap="round" opacity="0.76"/>
    <path d="M30 80 C34.33 66.69 59.51 73.53 81.49 72.76" fill="none" stroke="#1c1c24" stroke-width="1.2" stroke-linecap="round" opacity="0.95"/>
    <line x1="30" y1="80" x2="32.78" y2="71.44" stroke="#4750d4" stroke-width="1.4" stroke-linecap="round"/>
    <circle cx="30" cy="80" r="2.6" fill="#4750d4"/>
</svg>
