<svg width="100" height="100" viewBox="0 0 100 100" fill="none" xmlns="http://www.w3.org/2000/svg" role="img" aria-label="Bezier">
    <path d="M50 84 C50 64 19.01 60.89 -5.43 52" fill="none" stroke="#1c1c24" stroke-width="1.18" stroke-linecap="round" opacity="0.45"/>
    <path d="M50 84 C50 64 41.38 45.38 34.49 21.91" fill="none" stroke="#1c1c24" stroke-width="1.43" stroke-linecap="round" opacity="0.64"/>
    <path d="M50 84 C50 64 59.12 44.53 65.91 22.01" fill="none" stroke="#1c1c24" stroke-width="1.42" stroke-linecap="round" opacity="0.76"/>
    <path d="M50 84 C50 64 69.98 47.95 83.87 29.7" fill="none" stroke="#1c1c24" stroke-width="1.33" stroke-linecap="round" opacity="0.83"/>
    <path d="M50 84 C50 64 76.22 51.58 93.49 37.05" fill="none" stroke="#1c1c24" stroke-width="1.27" stroke-linecap="round" opacity="0.88"/>
    <path d="M50 84 C50 64 79.77 54.37 98.68 42.45" fill="none" stroke="#1c1c24" stroke-width="1.24" stroke-linecap="round" opacity="0.91"/>
    <path d="M50 84 C50 64 81.84 56.3 101.56 46.08" fill="none" stroke="#1c1c24" stroke-width="1.21" stroke-linecap="round" opacity="0.92"/>
    <path d="M50 84 C50 64 83.05 57.56 103.2 48.42" fill="none" stroke="#4750d4" stroke-width="1.2" stroke-linecap="round" opacity="1"/>
    <path d="M50 84 C50 64 83.78 58.37 104.16 49.91" fill="none" stroke="#1c1c24" stroke-width="1.19" stroke-linecap="round" opacity="0.94"/>
    <path d="M50 84 C50 64 84.22 58.88 104.74 50.84" fill="none" stroke="#1c1c24" stroke-width="1.19" stroke-linecap="round" opacity="0.94"/>
    <path d="M50 84 C50 64 84.49 59.2 105.08 51.42" fill="none" stroke="#1c1c24" stroke-width="1.18" stroke-linecap="round" opacity="0.95"/>
    <path d="M50 84 C50 64 84.65 59.4 105.3 51.78" fill="none" stroke="#1c1c24" stroke-width="1.18" stroke-linecap="round" opacity="0.95"/>
    <path d="M50 84 C50 64 84.75 59.52 105.43 52" fill="none" stroke="#1c1c24" stroke-width="1.18" stroke-linecap="round" opacity="0.95"/>
    <line x1="50" y1="84" x2="50" y2="75" stroke="#4750d4" stroke-width="1.4" stroke-linecap="round"/>
    <circle cx="50" cy="84" r="2.6" fill="#4750d4"/>
</svg>
