<svg width="100" height="100" viewBox="0 0 100 100" fill="none" xmlns="http://www.w3.org/2000/svg" role="img" aria-label="Bezier">
    <path d="M44 76 C41.22 60.24 12.24 62.35 -11.86 72.09" fill="none" stroke="#1c1c24" stroke-width="1.14" stroke-linecap="round" opacity="0.45"/>
    <path d="M44 76 C41.22 60.24 12.32 62.17 -11.84 71.73" fill="none" stroke="#1c1c24" stroke-width="1.14" stroke-linecap="round" opacity="0.45"/>
    <path d="M44 76 C41.22 60.24 12.45 61.86 -11.8 71.14" fill="none" stroke="#1c1c24" stroke-width="1.15" stroke-linecap="round" opacity="0.45"/>
    <path d="M44 76 C41.22 60.24 12.67 61.38 -11.73 70.18" fill="none" stroke="#1c1c24" stroke-width="1.15" stroke-linecap="round" opacity="0.46"/>
    <path d="M44 76 C41.22 60.24 13.03 60.6 -11.57 68.64" fill="none" stroke="#1c1c24" stroke-width="1.16" stroke-linecap="round" opacity="0.46"/>
    <path d="M44 76 C41.22 60.24 13.66 59.35 -11.23 66.15" fill="none" stroke="#1c1c24" stroke-width="1.18" stroke-linecap="round" opacity="0.48"/>
    <path d="M44 76 C41.22 60.24 14.77 57.39 -10.44 62.16" fill="none" stroke="#1c1c24" stroke-width="1.2" stroke-linecap="round" opacity="0.49"/>
    <path d="M44 76 C41.22 60.24 16.84 54.37 -8.55 55.84" fill="none" stroke="#1c1c24" stroke-width="1.24" stroke-linecap="round" opacity="0.52"/>
    <path d="M44 76 C41.22 60.24 20.83 49.96 -3.95 46.19" fill="none" stroke="#1c1c24" stroke-width="1.31" stroke-linecap="round" opacity="0.57"/>
    <path d="M44 76 C41.22 60.24 28.73 44.36 7.11 32.87" fill="none" stroke="#1c1c24" stroke-width="1.41" stroke-linecap="round" opacity="0.64"/>
    <path d="M44 76 C41.22 60.24 44.04 40.28 32.03 20.03" fill="none" stroke="#1c1c24" stroke-width="1.42" stroke-linecap="round" opacity="0.76"/>
    <path d="M44 76 C41.22 60.24 68.91 48.59 76.43 27.92" fill="none" stroke="#1c1c24" stroke-width="1.14" stroke-linecap="round" opacity="0.95"/>
    <line x1="44" y1="76" x2="42.44" y2="67.14" stroke="#4750d4" stroke-width="1.4" stroke-linecap="round"/>
    <circle cx="44" cy="76" r="2.6" fill="#4750d4"/>
</svg>
