<svg width="100" height="100" viewBox="0 0 100 100" fill="none" xmlns="http://www.w3.org/2000/svg" role="img" aria-label="Bezier">
    <path d="M44 80 C46.09 50.07 0.08 50.87 -8.19 22.03" fill="none" stroke="#1c1c24" stroke-width="0.7" stroke-linecap="round" opacity="0.74"/>
    <path d="M44 80 C46.09 50.07 5.07 46.41 0.69 16.73" fill="none" stroke="#1c1c24" stroke-width="0.79" stroke-linecap="round" opacity="0.77"/>
    <path d="M44 80 C46.09 50.07 10.3 42.82 9.78 12.82" fill="none" stroke="#1c1c24" stroke-width="0.88" stroke-linecap="round" opacity="0.8"/>
    <path d="M44 80 C46.09 50.07 15.65 40.07 18.89 10.24" fill="none" stroke="#1c1c24" stroke-width="0.97" stroke-linecap="round" opacity="0.82"/>
    <path d="M44 80 C46.09 50.07 20.98 38.1 27.82 8.89" fill="none" stroke="#1c1c24" stroke-width="1.05" stroke-linecap="round" opacity="0.85"/>
    <path d="M44 80 C46.09 50.07 26.2 36.85 36.43 8.65" fill="none" stroke="#1c1c24" stroke-width="1.13" stroke-linecap="round" opacity="0.88"/>
    <path d="M44 80 C46.09 50.07 31.21 36.24 44.58 9.39" fill="none" stroke="#1c1c24" stroke-width="1.21" stroke-linecap="round" opacity="0.91"/>
    <path d="M44 80 C46.09 50.07 36.07 35.24 52.31 10.01" fill="none" stroke="#1c1c24" stroke-width="1.22" stroke-linecap="round" opacity="0.91"/>
    <path d="M44 80 C46.09 50.07 41.06 33.62 59.87 10.25" fill="none" stroke="#1c1c24" stroke-width="1.14" stroke-linecap="round" opacity="0.88"/>
    <path d="M44 80 C46.09 50.07 46.08 32.61 67.14 11.25" fill="none" stroke="#1c1c24" stroke-width="1.08" stroke-linecap="round" opacity="0.86"/>
    <path d="M44 80 C46.09 50.07 51.02 32.15 74.04 12.92" fill="none" stroke="#1c1c24" stroke-width="1.01" stroke-linecap="round" opacity="0.84"/>
    <path d="M44 80 C46.09 50.07 55.8 32.2 80.48 15.15" fill="none" stroke="#1c1c24" stroke-width="0.95" stroke-linecap="round" opacity="0.82"/>
    <path d="M44 80 C46.09 50.07 60.34 32.68 86.39 17.81" fill="none" stroke="#1c1c24" stroke-width="0.89" stroke-linecap="round" opacity="0.8"/>
    <path d="M44 80 C46.09 50.07 64.57 33.52 91.73 20.78" fill="none" stroke="#1c1c24" stroke-width="0.83" stroke-linecap="round" opacity="0.78"/>
    <path d="M44 80 C46.09 50.07 68.43 34.62 96.45 23.9" fill="none" stroke="#1c1c24" stroke-width="0.78" stroke-linecap="round" opacity="0.76"/>
    <path d="M44 80 C46.09 50.07 71.83 35.87 100.5 27.02" fill="none" stroke="#1c1c24" stroke-width="0.74" stroke-linecap="round" opacity="0.75"/>
    <path d="M44 80 C46.09 50.07 74.64 37.12 103.75 29.86" fill="none" stroke="#1c1c24" stroke-width="0.7" stroke-linecap="round" opacity="0.74"/>
    <line x1="44" y1="80" x2="44.56" y2="72.02" stroke="#4750d4" stroke-width="1.3" stroke-linecap="round"/>
    <circle cx="44" cy="80" r="2.4" fill="#4750d4"/>
</svg>
