<svg width="100" height="100" viewBox="0 0 100 100" fill="none" xmlns="http://www.w3.org/2000/svg" role="img" aria-label="Bezier">
    <path d="M50 82 C50 50 17.86 43.7 -1.42 20.72" fill="none" stroke="#1c1c24" stroke-width="0.7" stroke-linecap="round" opacity="0.74"/>
    <path d="M50 82 C50 50 22.62 41.58 5.79 16.74" fill="none" stroke="#1c1c24" stroke-width="0.78" stroke-linecap="round" opacity="0.76"/>
    <path d="M50 82 C50 50 27.35 40.05 13.1 13.65" fill="none" stroke="#1c1c24" stroke-width="0.86" stroke-linecap="round" opacity="0.79"/>
    <path d="M50 82 C50 50 31.99 39.07 20.39 11.41" fill="none" stroke="#1c1c24" stroke-width="0.94" stroke-linecap="round" opacity="0.81"/>
    <path d="M50 82 C50 50 36.48 38.6 27.56 9.95" fill="none" stroke="#1c1c24" stroke-width="1.01" stroke-linecap="round" opacity="0.84"/>
    <path d="M50 82 C50 50 40.78 38.57 34.55 9.22" fill="none" stroke="#1c1c24" stroke-width="1.09" stroke-linecap="round" opacity="0.86"/>
    <path d="M50 82 C50 50 44.84 38.94 41.27 9.15" fill="none" stroke="#1c1c24" stroke-width="1.16" stroke-linecap="round" opacity="0.89"/>
    <path d="M50 82 C50 50 48.64 39.66 47.69 9.67" fill="none" stroke="#1c1c24" stroke-width="1.22" stroke-linecap="round" opacity="0.91"/>
    <path d="M50 82 C50 50 52.23 39.46 53.8 9.5" fill="none" stroke="#1c1c24" stroke-width="1.21" stroke-linecap="round" opacity="0.91"/>
    <path d="M50 82 C50 50 55.81 38.86 59.81 9.12" fill="none" stroke="#1c1c24" stroke-width="1.14" stroke-linecap="round" opacity="0.88"/>
    <path d="M50 82 C50 50 59.35 38.57 65.67 9.24" fill="none" stroke="#1c1c24" stroke-width="1.08" stroke-linecap="round" opacity="0.86"/>
    <path d="M50 82 C50 50 62.83 38.56 71.33 9.79" fill="none" stroke="#1c1c24" stroke-width="1.02" stroke-linecap="round" opacity="0.84"/>
    <path d="M50 82 C50 50 66.2 38.83 76.73 10.74" fill="none" stroke="#1c1c24" stroke-width="0.97" stroke-linecap="round" opacity="0.82"/>
    <path d="M50 82 C50 50 69.42 39.32 81.84 12.01" fill="none" stroke="#1c1c24" stroke-width="0.91" stroke-linecap="round" opacity="0.81"/>
    <path d="M50 82 C50 50 72.46 40 86.61 13.55" fill="none" stroke="#1c1c24" stroke-width="0.86" stroke-linecap="round" opacity="0.79"/>
    <path d="M50 82 C50 50 75.3 40.84 91.01 15.28" fill="none" stroke="#1c1c24" stroke-width="0.82" stroke-linecap="round" opacity="0.77"/>
    <path d="M50 82 C50 50 77.9 41.78 94.99 17.13" fill="none" stroke="#1c1c24" stroke-width="0.77" stroke-linecap="round" opacity="0.76"/>
    <path d="M50 82 C50 50 80.21 42.76 98.51 18.99" fill="none" stroke="#1c1c24" stroke-width="0.73" stroke-linecap="round" opacity="0.75"/>
    <path d="M50 82 C50 50 82.14 43.7 101.42 20.72" fill="none" stroke="#1c1c24" stroke-width="0.7" stroke-linecap="round" opacity="0.74"/>
    <line x1="50" y1="82" x2="50" y2="74" stroke="#4750d4" stroke-width="1.3" stroke-linecap="round"/>
    <circle cx="50" cy="82" r="2.4" fill="#4750d4"/>
</svg>
