<svg width="100" height="100" viewBox="0 0 100 100" fill="none" xmlns="http://www.w3.org/2000/svg" role="img" aria-label="Bezier">
    <path d="M34 80 C43.27 51.47 -8.64 43.6 -10.74 13.68" fill="none" stroke="#1c1c24" stroke-width="0.7" stroke-linecap="round" opacity="0.74"/>
    <path d="M34 80 C43.27 51.47 -2.01 39.13 0.39 9.23" fill="none" stroke="#1c1c24" stroke-width="0.79" stroke-linecap="round" opacity="0.77"/>
    <path d="M34 80 C43.27 51.47 4.79 35.86 11.52 6.63" fill="none" stroke="#1c1c24" stroke-width="0.88" stroke-linecap="round" opacity="0.8"/>
    <path d="M34 80 C43.27 51.47 11.57 33.72 22.37 5.73" fill="none" stroke="#1c1c24" stroke-width="0.97" stroke-linecap="round" opacity="0.82"/>
    <path d="M34 80 C43.27 51.47 18.16 32.6 32.7 6.36" fill="none" stroke="#1c1c24" stroke-width="1.05" stroke-linecap="round" opacity="0.85"/>
    <path d="M34 80 C43.27 51.47 24.43 32.37 42.33 8.3" fill="none" stroke="#1c1c24" stroke-width="1.13" stroke-linecap="round" opacity="0.88"/>
    <path d="M34 80 C43.27 51.47 30.29 32.91 51.13 11.34" fill="none" stroke="#1c1c24" stroke-width="1.21" stroke-linecap="round" opacity="0.91"/>
    <path d="M34 80 C43.27 51.47 36.09 32.97 59.45 14.14" fill="none" stroke="#1c1c24" stroke-width="1.22" stroke-linecap="round" opacity="0.91"/>
    <path d="M34 80 C43.27 51.47 42.29 32.39 67.72 16.48" fill="none" stroke="#1c1c24" stroke-width="1.14" stroke-linecap="round" opacity="0.88"/>
    <path d="M34 80 C43.27 51.47 48.38 32.61 75.46 19.7" fill="none" stroke="#1c1c24" stroke-width="1.08" stroke-linecap="round" opacity="0.86"/>
    <path d="M34 80 C43.27 51.47 54.23 33.55 82.55 23.66" fill="none" stroke="#1c1c24" stroke-width="1.01" stroke-linecap="round" opacity="0.84"/>
    <path d="M34 80 C43.27 51.47 59.73 35.1 88.92 28.18" fill="none" stroke="#1c1c24" stroke-width="0.95" stroke-linecap="round" opacity="0.82"/>
    <path d="M34 80 C43.27 51.47 64.81 37.15 94.54 33.09" fill="none" stroke="#1c1c24" stroke-width="0.89" stroke-linecap="round" opacity="0.8"/>
    <path d="M34 80 C43.27 51.47 69.4 39.57 99.37 38.22" fill="none" stroke="#1c1c24" stroke-width="0.83" stroke-linecap="round" opacity="0.78"/>
    <path d="M34 80 C43.27 51.47 73.44 42.22 103.42 43.36" fill="none" stroke="#1c1c24" stroke-width="0.78" stroke-linecap="round" opacity="0.76"/>
    <path d="M34 80 C43.27 51.47 76.89 44.93 106.7 48.29" fill="none" stroke="#1c1c24" stroke-width="0.74" stroke-linecap="round" opacity="0.75"/>
    <path d="M34 80 C43.27 51.47 79.63 47.43 109.18 52.64" fill="none" stroke="#1c1c24" stroke-width="0.7" stroke-linecap="round" opacity="0.74"/>
    <line x1="34" y1="80" x2="36.47" y2="72.39" stroke="#4750d4" stroke-width="1.3" stroke-linecap="round"/>
    <circle cx="34" cy="80" r="2.4" fill="#4750d4"/>
</svg>
